<svg xmlns="http://www.w3.org/2000/svg" width="801.823" height="666.94" viewBox="0 0 801.823 666.94">
  <g id="Group_244" data-name="Group 244" transform="translate(-788.678 -179.19)">
    <g id="Group_243" data-name="Group 243" transform="translate(788.678 179.19)">
      <path id="Path_331" data-name="Path 331" d="M894.491,171.088c-58.289-21.691-128.63-7.633-173.728,34.719-52.121,48.948-72.4,130.786-137.649,160.794-48.577,22.341-106.328,7.748-158.638,19.317-75.5,16.7-130.278,89.9-136.8,165.846-5.006,58.306,15.1,116.323,48.35,164.053,31.064,44.594,86.848,69.26,138.221,83.865,76,21.6,161.478,28.33,240.373,28.255,58.5-.055,117.336-4.418,174.561-16.809,47.4-10.263,97.081-22.566,135.992-52.641,18.221-14.084,38.828-35.045,46.256-57.237,9.277-27.717,5.915-62.815-1.67-90.459-12.531-45.665-38.476-86.456-57.811-129.758-12.276-27.491-12.211-54.1-15.956-83.314-4.091-31.912-6.08-64.091-11.884-95.779-5.186-28.308-13.771-56.565-28.625-81.495C939.765,194.075,922.764,181.608,894.491,171.088Z" transform="translate(-286.911 -160.998)" fill="#fcfaff"/>
      <path id="Path_332" data-name="Path 332" d="M533.691,421.678a220.046,220.046,0,0,1,28.457,90.786,226.715,226.715,0,0,1-1.177,48.821c-1.19,9.234,4.312,27.344-10.733,27.659-6.8.141-12.927-3.735-19.391-5.83-14.463-4.687-30.1-.357-45.228,1.307-12.068,1.327-24.253.922-36.388.512-15.186-.51-30.508-1.039-45.248-4.673s-29.054-10.66-38.755-22.181c-6.757-8.022-11.1-18.882-8.315-28.939,1.484-5.35,4.848-10.027,8.741-14.036a59.368,59.368,0,0,1,20.441-13.687c11.419-4.578,26.256-7.44,29.82-19.063,2.971-9.688-4.139-19.195-9.361-27.911s-7.849-21.9.8-27.362c6.757-4.263,16.3-.7,23.349-4.481,9.524-5.11,8.033-18.767,5.61-29.179q-4.521-19.414-7.094-39.2c-1.382-10.636-.727-24.208,9.288-28.415,10.355-4.35,21.081,5.465,26.726,15.06A109.606,109.606,0,0,1,477.5,371.534c1.906,8.184,2.966,16.847,7.594,23.9,8.472,12.907,17.187,5.286,28.422,7.643C522.806,405.028,528.987,413.543,533.691,421.678Z" transform="translate(-206.46 5.472)" fill="#cf74ec"/>
      <path id="Path_333" data-name="Path 333" d="M472.484,262.137c-26.8,3.168-53.978,1.857-80.8,4.852s-54.28,10.954-73.661,29.457" transform="translate(-250.709 -58.174)" fill="none" stroke="#e5d7fa" stroke-miterlimit="10" stroke-width="1.121"/>
      <path id="Path_336" data-name="Path 336" d="M701.019,504.461a80.705,80.705,0,0,0,15.391-16.529,58.929,58.929,0,0,0,9.269-24.321c.982-6.758,2.038-18.079-1.74-24.172-1.7-2.751-4.2-4.919-6.46-7.246-3.721-3.832-6.973-8.4-7.843-13.629-.917-5.51.887-11.053,2.2-16.486,2.181-9,3.053-18.4,1.5-27.525s-5.645-17.964-12.375-24.414c-3.369-3.229-7.317-5.8-10.982-8.7-10.882-8.607-19.11-20.082-24.787-32.573a111.272,111.272,0,0,1-6.752-19.6c-.547-2.24-.541-5.348-1.83-7.29-1.7-2.565-5.547-4.616-7.8-6.794-6.067-5.858-10.969-12.759-15.835-19.618-8.875-12.505-17.453-25.289-26.655-37.56-4.645-6.193-4-11.176-12.687-12.548-11.7-1.847-24.7-2.168-36.176,1.266-19.922,5.961-38.424,17.073-51.9,32.706a89.329,89.329,0,0,0-19.523,38.26c-3.046,13.407-5.72,27.459-7.492,41.134-1.919,4.909-4.628,9.291-9.195,11.842-8.47,4.733-19.963,1.127-28.225,6.2-12.416,7.625-8.8,28.108-10.368,40.158-.816,6.286-2.148,13.447-7.931,17.2-8.7,5.653-21.131.06-30.759,2.864-22.522,6.56-19.007,38.966-8.741,53.968,6.783,9.912,16.454,15.177,28.011,18.041,13.223,3.279,24,12.176,26.546,25.817,1.636,8.746.446,17.728.017,26.612-.614,12.707,1.458,22.74,9.983,32.39,18.327,20.747,47.712,30.062,75.572,28.233,10.761-.7,21.678-3.027,30.731-8.8,6.454-4.118,11.683-9.805,17.044-15.238,9.061-9.182,19.052-18.021,31.278-22.369,12.427-4.418,25.915-3.866,38.556-7.357,6.729-1.857,9.948-3.426,16.925-3.372a44.586,44.586,0,0,0,17.931-3.517c5.465-2.347,10.372-5.78,15.149-9.295C694.446,509.724,697.8,507.165,701.019,504.461Z" transform="translate(-184.047 -117.178)" fill="#220d2d"/>
      <path id="Path_337" data-name="Path 337" d="M517.785,517.8c-26.114.313-52.827-9.083-69.9-28.425-8.518-9.672-10.593-19.691-10-32.414.424-8.873,1.618-17.851,0-26.622-2.568-13.625-13.338-22.534-26.572-25.791-11.542-2.878-21.222-8.147-28.015-18.061-10.242-14.976-13.76-47.387,8.764-53.974,9.608-2.773,22.068,2.807,30.761-2.843,5.772-3.779,7.109-10.92,7.918-17.194,1.584-12.064-2.042-32.551,10.383-40.178,7.137-4.41,16.988-2.977,24.96-4.677-.8,3.4-7.311,4.671-10.21,6.441-3.866,2.366-7.391,5.447-9.085,9.714a28.385,28.385,0,0,0-1.532,8.577c-.573,8.218-1.462,16.641.061,24.69,1.255,6.641,2.4,15.645-1.96,21.419-4.42,5.854-13.05,6.715-18.734,11.392-7.953,6.542-8.059,18.664-5.065,28.433a56.039,56.039,0,0,0,13.265,22.881c6.175,6.292,9.963,13.364,18.044,17.926,5.612,3.166,11.72,5.786,16.183,10.4a32.117,32.117,0,0,1,6.175,9.672c3.557,8.2,4.827,17.152,5.868,26,.668,5.689,1.27,11.452,3.25,16.839a55.563,55.563,0,0,0,10.13,16.968A78.64,78.64,0,0,0,517.785,517.8Z" transform="translate(-184.046 -52.603)" fill="#220d2d" opacity="0.342" style="mix-blend-mode: multiply;isolation: isolate"/>
      <path id="Path_338" data-name="Path 338" d="M622.085,459.826a59.305,59.305,0,0,1-9.258,24.335A81.243,81.243,0,0,1,597.412,500.7c-3.2,2.7-6.581,5.235-9.959,7.73-1.021.764-2.042,1.49-3.1,2.255a59.413,59.413,0,0,0,6.969-20.558c.984-6.76,2.04-18.1-1.724-24.2-1.724-2.739-4.223-4.888-6.475-7.246-3.732-3.813-6.969-8.389-7.849-13.622-.915-5.512.915-11.059,2.218-16.466,2.181-9.014,3.061-18.408,1.512-27.525-1.584-9.117-5.666-17.956-12.388-24.438-3.379-3.225-7.321-5.79-10.98-8.668-10.876-8.631-19.113-20.106-24.779-32.585a108.375,108.375,0,0,1-6.757-19.586c-.562-2.253-.562-5.374-1.83-7.314-1.724-2.565-5.56-4.61-7.813-6.794-6.053-5.858-10.982-12.757-15.839-19.622-8.868-12.477-17.455-25.269-26.642-37.54-4.615-6.167-10.093-12.475-6.406-20.086a30.284,30.284,0,0,1,24.394-16.547c11.278-.9,13.531,7.264,19.084,14.976,6.891,9.567,13.513,19.318,20.331,28.935,4.857,6.865,9.749,13.762,15.837,19.62,2.252,2.15,6.09,4.229,7.78,6.794,1.3,1.942,1.3,5.028,1.828,7.28a112.183,112.183,0,0,0,6.759,19.586c5.7,12.515,13.9,23.99,24.811,32.587,3.661,2.876,7.6,5.477,10.982,8.7,6.722,6.447,10.8,15.288,12.354,24.406s.7,18.545-1.478,27.523c-1.339,5.443-3.133,10.989-2.218,16.5.878,5.235,4.117,9.777,7.847,13.625,2.252,2.321,4.753,4.505,6.441,7.244C624.125,441.765,623.069,453.066,622.085,459.826Z" transform="translate(-80.447 -113.397)" fill="#220d2d" opacity="0.342" style="mix-blend-mode: multiply;isolation: isolate"/>
      <g id="Group_233" data-name="Group 233" transform="translate(335.238 138.708)">
        <g id="Group_231" data-name="Group 231" transform="translate(35.243 73.867)">
          <path id="Path_339" data-name="Path 339" d="M492.293,404.975c-19.532-3.951-26.008-29.986-27.944-46.244-.95-7.9-2.006-15.806-2.957-23.744-1.337-11.128-2.5-22.29-3.167-33.489-.775-13.173,4.541-38.546,23.617-34.7,18.864,3.814,27.029,30.054,27.979,46.244.565,9.948,1.549,19.828,2.711,29.707,1.09,9.151,2.289,18.337,3.38,27.525C517.528,383.552,510.806,408.72,492.293,404.975Z" transform="translate(-458.152 -266.407)" fill="#fcd6b1"/>
        </g>
        <g id="Group_232" data-name="Group 232">
          <path id="Path_340" data-name="Path 340" d="M512.53,342.751c-2.957,1.8-5.982,3.535-8.974,5.235-2.886,1.629-5.878,3.293-9.186,3.674-4.576.52-9.046-1.6-13.094-3.779a135.977,135.977,0,0,1-19.885-12.895c-1.337-11.128-2.5-22.29-3.167-33.489-.775-13.173,4.541-38.546,23.617-34.7,18.864,3.814,27.029,30.054,27.979,46.244C510.384,322.992,511.368,332.872,512.53,342.751Z" transform="translate(-422.909 -192.541)" fill="#fcd6b1" style="mix-blend-mode: multiply;isolation: isolate"/>
          <path id="Path_341" data-name="Path 341" d="M441.862,288.254c0,19.816,4.922,40.557,17.217,56.62,9.961,13.015,23.474,23.074,37.985,30.907,4.059,2.19,8.513,4.277,13.113,3.767,3.3-.365,6.289-2.039,9.169-3.676,11.674-6.639,23.667-13.546,31.854-24.1,7.741-9.978,11.436-22.441,13.57-34.824,3.7-21.479,6.867-48.66-8.012-66.521-11.687-14.03-31.892-20.651-49.865-20.651C476.093,229.781,441.862,248.631,441.862,288.254Z" transform="translate(-441.862 -229.779)" fill="#fcd6b1"/>
        </g>
      </g>
      <path id="Path_342" data-name="Path 342" d="M459,258.631a19.468,19.468,0,0,1,20.053,1.006" transform="translate(-86.687 -64.084)" fill="none" stroke="#68411d" stroke-miterlimit="10" stroke-width="0.841"/>
      <path id="Path_343" data-name="Path 343" d="M466.012,276.433c1.491,9.8-3.715,18.692-11.627,19.862s-15.536-5.83-17.029-15.631,3.715-18.692,11.627-19.862S464.519,266.632,466.012,276.433Z" transform="translate(-112.163 -59.661)" fill="#fcd6b1"/>
      <path id="Path_344" data-name="Path 344" d="M524.531,286.02a98.079,98.079,0,0,1-10.683,10.168c-8.373,6.865-17.821,12.638-28.232,15.8s-25.274,4.945-35.564,1.414c-7.7-2.64-5.616-10.122-7.155-17.125q-1.032-4.692-1.692-9.456a82.029,82.029,0,0,1-.634-19.128,42.053,42.053,0,0,1,1.828-9.119c7.269-21.969,28.32-49.785,55.048-47.168,9.463.926,19.45,7.577,28.011,11.39,5.789,2.577,11.966,5.5,15.023,10.985,1.993,3.576,2.376,7.811,2.22,11.888C542.127,260.721,534.794,274.626,524.531,286.02Z" transform="translate(-108.483 -109.923)" fill="#523d6b" opacity="0.428" style="mix-blend-mode: multiply;isolation: isolate"/>
      <path id="Path_345" data-name="Path 345" d="M521.976,285.833A98.3,98.3,0,0,1,511.29,296c-8.373,6.865-17.821,12.638-28.232,15.8s-25.274,4.947-35.562,1.416c-7.7-2.64-5.619-10.124-7.157-17.125q-1.032-4.695-1.69-9.456a81.911,81.911,0,0,1-.636-19.128,42.169,42.169,0,0,1,1.828-9.119c7.269-21.969,28.32-49.785,55.049-47.17,9.463.928,19.45,7.579,28.011,11.39,5.79,2.579,11.969,5.5,15.023,10.987,1.993,3.576,2.376,7.811,2.22,11.888C539.57,260.534,532.237,274.439,521.976,285.833Z" transform="translate(-111.458 -110.115)" fill="#220d2d"/>
      <path id="Path_346" data-name="Path 346" d="M497.9,275.771c12.114,8.353,25.536,15.615,33.307,27.9a41.469,41.469,0,0,1,6.255,25.368c-.705,8.595-4.113,16.918-3.862,25.539.4,13.709,11.445,26.186,24.887,29.223a1.824,1.824,0,0,0,1.928-2.845,26.753,26.753,0,0,1-5.439-19.134c1-8.734,6.387-16.549,6.616-25.4.169-6.508-3.031-11.6-6.408-16.718-4.2-6.371-6.408-17.708-4.79-25.136,1.294-5.927,3.343-11.7,4.093-17.72,1.659-13.3-3.245-26.769-10.969-37.8a81.726,81.726,0,0,0-38.543-29.566c-7.988-2.93-20.964-7.06-29.564-5-7.572,1.815-8.539,18.13-8.522,25.2a43.636,43.636,0,0,0,7.538,25c5.489,7.782,12.553,13.207,20.188,18.763C495.692,274.234,496.791,275.008,497.9,275.771Z" transform="translate(-77.507 -117.352)" fill="#523d6b" opacity="0.428" style="mix-blend-mode: multiply;isolation: isolate"/>
      <path id="Path_347" data-name="Path 347" d="M508.609,275.782c12.116,8.353,25.538,15.615,33.307,27.9a41.467,41.467,0,0,1,6.257,25.366c-.705,8.6-4.113,16.92-3.864,25.541.4,13.709,11.447,26.186,24.889,29.223a1.824,1.824,0,0,0,1.928-2.846,26.753,26.753,0,0,1-5.441-19.134c1-8.734,6.389-16.549,6.618-25.4.169-6.508-3.031-11.6-6.408-16.718-4.2-6.371-6.408-17.708-4.79-25.138,1.292-5.925,3.343-11.7,4.093-17.718,1.659-13.3-3.247-26.769-10.971-37.8a81.736,81.736,0,0,0-38.541-29.568,83.155,83.155,0,0,0-40.648-4.106c-5.337.8-11.964.97-13.245,7.333-1,4.953,2.862,10.364,4.913,14.586a124.819,124.819,0,0,0,38.617,46.153Q506.945,274.638,508.609,275.782Z" transform="translate(-83.622 -116.786)" fill="#220d2d"/>
      <g id="Group_234" data-name="Group 234" transform="translate(334.096 167.028)">
        <path id="Path_348" data-name="Path 348" d="M441.334,274.033c11.715,2.3,24.082.016,34.822-5.138s19.95-13.044,27.758-21.949" transform="translate(-441.334 -240.647)" fill="none" stroke="#392a51" stroke-miterlimit="10" stroke-width="1.121"/>
        <path id="Path_349" data-name="Path 349" d="M442.1,277.121a90.7,90.7,0,0,0,49.564-33.3" transform="translate(-440.437 -243.822)" fill="none" stroke="#392a51" stroke-miterlimit="10" stroke-width="1.121"/>
        <path id="Path_350" data-name="Path 350" d="M441.672,274.95c3.637-1.494,6.075-4.848,8.282-8.065q7.2-10.488,13.92-21.282" transform="translate(-440.941 -242.01)" fill="none" stroke="#392a51" stroke-miterlimit="10" stroke-width="1.121"/>
      </g>
      <path id="Path_351" data-name="Path 351" d="M496.965,294.7c2.3,10.717,11.5,18.761,21.332,23.875s20.7,8.093,30.486,13.308,18.833,13.479,20.807,24.26" transform="translate(-42.51 -25.07)" fill="none" stroke="#392a51" stroke-miterlimit="10" stroke-width="1.121"/>
      <path id="Path_352" data-name="Path 352" d="M491.634,299.976c-.355,4.219,1.61,8.373,4.42,11.578s6.424,5.61,9.987,7.976" transform="translate(-48.761 -19.705)" fill="none" stroke="#392a51" stroke-miterlimit="10" stroke-width="1.121"/>
      <path id="Path_353" data-name="Path 353" d="M470.194,270.483a26.792,26.792,0,0,1-19.543,15.887c-3.864.728-7.949.623-11.551,2.178-7.137,3.083-10.08,11.729-9.781,19.4s2.984,15.079,3.587,22.732-1.551,16.363-8.271,20.253c-6.242,3.616-14.863,2.174-20.376,6.8-5.913,4.961-5.1,14.312-1.863,21.268s8.373,13.191,9.831,20.7" transform="translate(-155.464 -49.689)" fill="none" stroke="#392a51" stroke-miterlimit="10" stroke-width="1.121"/>
      <path id="Path_354" data-name="Path 354" d="M530.328,351.3c5.218-6.58,10.636-13.332,18.02-17.44s17.308-4.957,23.976.2c3.572,2.763,5.788,6.849,7.83,10.844a381.075,381.075,0,0,1,17.663,40.109c6.049,16.2,12.955,34.9,29.441,40.775,12.375,4.4,26.94-.016,38.788,5.618,13.968,6.643,18.238,24.163,18.643,39.436s-1.123,31.682,7,44.7c8.57,13.729,27.455,23.583,25.519,39.585-1.324,10.938-12.41,18.047-23.018,21.53-43.117,14.157-90.06-6.014-135.352-2.287-16.1,1.323-34.817,4.878-46.379-6.24-5.471-5.263-7.938-12.794-9.894-20.078a264.506,264.506,0,0,1,19.742-187" transform="translate(-46.22 11.307)" fill="#cf74ec"/>
      <path id="Path_384" data-name="Path 384" d="M439.3,285.193h-1.432" transform="translate(-111.273 -34.734)" fill="none" stroke="#392a51" stroke-miterlimit="10" stroke-width="1.121"/>
      <path id="Path_385" data-name="Path 385" d="M478.332,261.881a113.9,113.9,0,0,0,.333,15.179c.2,2.257.056,5.425.922,7.53.638,1.555,2.984,2.186,4.554,2.652a15.883,15.883,0,0,1,2.425.795A3.224,3.224,0,0,1,488.3,289.8a2.955,2.955,0,0,1-.519,2.6,7.376,7.376,0,0,1-2.079,1.8,28.011,28.011,0,0,1-5.275,2.656" transform="translate(-64.322 -58.434)" fill="none" stroke="#e59e6e" stroke-linecap="round" stroke-linejoin="round" stroke-width="0.561"/>
      <g id="Group_239" data-name="Group 239" transform="translate(384.474 243.368)">
        <path id="Path_386" data-name="Path 386" d="M506.537,287.467a18.071,18.071,0,0,1-4.117,9.706c-5.7,7-16.226,10.122-24.742,5.546a26.453,26.453,0,0,1-5.316-3.709,21.71,21.71,0,0,1-7.743-13.8,64.548,64.548,0,0,0,13.2,2.67c4.611.52,9.29.97,13.866.313a29.249,29.249,0,0,0,14.606-6.518A21.438,21.438,0,0,1,506.537,287.467Z" transform="translate(-464.619 -281.677)" fill="#220d2d"/>
        <path id="Path_387" data-name="Path 387" d="M498.256,291.9c-5.7,7-16.226,10.122-24.742,5.546a26.45,26.45,0,0,1-5.316-3.709c3.379-4.126,9.258-6.865,15.943-6.865A21.2,21.2,0,0,1,498.256,291.9Z" transform="translate(-460.455 -276.4)" fill="#f85c55"/>
      </g>
      <path id="Path_388" data-name="Path 388" d="M513.624,274.448c0,3.182-6.571,5.762-14.677,5.762s-14.679-2.579-14.679-5.762,6.573-5.764,14.679-5.764S513.624,271.265,513.624,274.448Z" transform="translate(-57.285 -51.518)" fill="#fcc2a2"/>
      <g id="Group_241" data-name="Group 241" transform="translate(291.2 303.392)">
        <path id="Path_389" data-name="Path 389" d="M513.773,390.323a66.363,66.363,0,0,1-4.037-11.4c-.907-3.678-1.409-7.568-.422-11.225,2.391-8.859,17.328-13.732,25.276-15.93,3.7-1.024,8.771-.8,12.109-2.493a306.5,306.5,0,0,0,15.731,42.584q4.754,10.327,10.389,20.231c3.686,6.449,8.234,11.681,12.458,17.739,8.137,11.676,12.585,25.507,14.2,39.5a99.96,99.96,0,0,1,.372,20.35c-.565,6.288-2.2,9.95-7.732,4.556-2.185-2.13-4.894-3.537-7.083-5.657-7.176-6.947-12.782-15.383-20.134-22.268-5.595-5.239-11.726-10.009-16.425-16.042a91.3,91.3,0,0,1-6.722-10.464q-9.707-16.737-19.411-33.472A179.127,179.127,0,0,1,513.773,390.323Z" transform="translate(-319.97 -272.976)" fill="#f9b485"/>
        <path id="Path_390" data-name="Path 390" d="M640.92,600.993c-.247.173-.528.347-.772.484-2.36,1.353-5.244,1.629-7.99,1.837a763.424,763.424,0,0,1-91.262,1.908c-16.4-.66-32.767-1.8-49.131-3.12-7.637-.625-17.739-.52-24.779-3.953-6.863-3.4-1.478-12.584.037-19,3.942-16.4,7.5-32.932,8.693-49.779,2.462-35.116-9.892-64.34-26.572-94.6-7.25-13.173-14.887-26.277-19.71-40.49a87.455,87.455,0,0,1-3.449-43.088c2.218-12.757,18.476-14.907,29.106-18.339,11.932-3.864,23.4-9.025,34.742-14.3,3.1-1.442,13.31-6.536,13.31-6.536s4.591,5.959,6.356,7.738a39.822,39.822,0,0,0,19.55,10.66c4.191.926,9.082,1.869,13.271.555,8.327-2.616,10.824-11.713,10.824-19.509,0,.938,13.481,9.708,14.746,10.747,6.653,5.409,13.269,10.781,19.922,16.19a66.7,66.7,0,0,1,10.03,9.325c3.555,4.332,5.948,9.462,8.306,14.558q2.745,5.929,5.491,11.856c1.618,3.5,3.237,7,4.892,10.5,0,.069.035.1.035.137.493,1.006.952,2.011,1.408,3.017.634,1.351,1.268,2.7,1.9,4.09.353.8.705,1.561,1.056,2.358,7.6,17.055,12.637,33.973,6.406,52.623-2.287,6.828-5.807,13.207-8.34,19.933-5.666,15.218-6.653,33.868-3.2,49.711a125.944,125.944,0,0,0,5.1,16.569q6.967,18.876,13.9,37.752C637.155,577.177,648.276,595.724,640.92,600.993Z" transform="translate(-417.76 -311.416)" fill="#fdc606"/>
        <path id="Path_391" data-name="Path 391" d="M507.121,319.469c9.472,2.906,18.959,5.8,28.565,8.488a46.511,46.511,0,0,1,10.089,3.682c8.258,4.562,12.791,13.512,16.843,21.941q5.916,12.306,11.832,24.615c3.438,7.151,5.662,12.81,6.893,20.435-7.786,3.334-15.774,5.866-23.338,9.831-7.715,4.047-14.478,10.368-22.165,14.153,4.792-3.646-29.446-65.862-32.444-71.676-5.9-11.426-14.323-11.277-17.808-24.389-2.283-8.581.212-4.909-1.465-15.109.106.657,3.5,1.783,4.07,2.019a46.751,46.751,0,0,0,4.444,1.587Q499.886,317.234,507.121,319.469Z" transform="translate(-348.652 -311.441)" fill="#fdc606"/>
        <path id="Path_392" data-name="Path 392" d="M607.83,415.431c-2.287,6.828-5.807,13.207-8.34,19.933-5.666,15.218-6.653,33.868-3.2,49.71-24.671,7.21-51.174,9.186-77.041,10.537-10.03.486-20.484.867-29.671-3.085-11.754-5.06-19.463-16.327-25.376-27.558a191.009,191.009,0,0,1-21.644-79.87c-.212-4.507.175-9.152-.141-13.625-.318-4.158-1.8-8.214-.177-12.408,1.233-3.19,4.857-5.756,8.165-4.646a10.028,10.028,0,0,1,3.944,3.12c15.7,18.374,22.1,45.447,43.64,58.723,22.49,13.832,51.736,11.545,76.8,3.051,5.913-1.976,11.9-4.437,16.118-8.944,6.618-7.036,7.462-17.575,7.215-27.177-.35-12.55-1.934-29.155-6.194-40.8l.212.313c2.04,2.809,3.661,7.038,4.892,10.5,0,.069.035.1.035.137.987,2.739,1.655,4.993,2.183,5.651.387.486.74.972,1.125,1.456.352.8.705,1.561,1.056,2.358C609.026,379.863,614.061,396.781,607.83,415.431Z" transform="translate(-398.254 -279.976)" fill="#f89a1d" opacity="0.28" style="mix-blend-mode: multiply;isolation: isolate"/>
        <path id="Path_393" data-name="Path 393" d="M646.443,454.862a2.151,2.151,0,0,1-.281.311c-1.408,1.49-3.907,1.353-5.772,1.942-2.464.762-5,1.456-7.568,2.011a58.71,58.71,0,0,1-15.168,1.49c-12.67-.45-24.565-5.58-36.321-10.192-5.208-2.045-10.452-3.985-15.768-5.858q-17.1-6.032-34.631-10.745c-5.807-1.561-11.685-2.983-17.561-4.334-8.448-1.908-22.606-3.977-30.49-7.546s-9.563-8.885-13.117-16.686a13.865,13.865,0,0,1-1.3-8.7c.705-2.912-3.713-5.271-.686-5.481,1.724-.137-.017-.589,1.6,0,32.589,12.411,74.964,12.2,111.32,14.943,6.125.452,12.354,1.041,18.76,1.8.774.071,1.584.173,2.358.278,8.518,1.109,17.421-3.051,25.516-.242,8.868,3.083,15.134,11.3,18.089,20.07,1.514,4.473,1.655,9.186,1.655,13.867,0,2.426-.071,4.854.069,7.28C647.252,450.909,647.639,453.266,646.443,454.862Z" transform="translate(-368.92 -230.783)" fill="#f9b485"/>
        <path id="Path_394" data-name="Path 394" d="M566.5,404.261c-.878,1.212-2.78,2.182-3.94,3.12a152.82,152.82,0,0,0-15.205,14.49,148.8,148.8,0,0,0-14.571,18.858c-.069.1-.106.173-.175.276q-17.106-6.029-34.631-10.745c4.433-6.76,11.966-10.815,19.18-14.56,9.751-5.13,19.85-10.366,30.586-13.241a68.085,68.085,0,0,1,9.889-1.908c2.252-.242,7.285-1.317,8.905,1.006A2.1,2.1,0,0,1,566.5,404.261Z" transform="translate(-332.534 -221.314)" fill="#ffcba1" opacity="0.492" style="mix-blend-mode: multiply;isolation: isolate"/>
        <path id="Path_395" data-name="Path 395" d="M425.057,371.446c14.23,29.6,25.225,60.615,40.306,89.83,7.473,14.478,15.887,28.622,26.323,41.241,4.076,4.927,8.336,11.906,13.862,15.036,7.347,4.164,18.319,2.085,25.99.147,18.212-4.6,35.274-12.626,51.7-21.493,5.982-3.229,12.563-5.286,18.386-8.619,6.683-3.826,13.353-7.669,20.075-11.428q10.6-5.926,21.291-11.682c5.45-2.934,12.436-8.94,18.68-9.515a4.968,4.968,0,0,0,2.663-.669c2.715-2.12-.757-6.33-2.6-7.595l-4.158-2.849a29.946,29.946,0,0,0-6.473-3.678c-7.8-2.852-13.886,1.039-21.25,3.192-16.527,4.832-34.218,6.968-51.161,10.249a325.572,325.572,0,0,1-53.872,5.834c-1.835.044-3.819.03-5.307-1.031-1.592-1.135-2.19-3.158-2.7-5.027-3.226-11.735-41.161-94.551-54.581-108.206a190.732,190.732,0,0,0-34.108,26.6" transform="translate(-417.376 -277.139)" fill="#fcd6b1"/>
        <path id="Path_396" data-name="Path 396" d="M466.315,325.117c39.5,19.691,41.1,2.21,44.607-7.325" transform="translate(-369.372 -304.984)" fill="none" stroke="#fbb005" stroke-miterlimit="10" stroke-width="0.561" style="mix-blend-mode: multiply;isolation: isolate"/>
        <path id="Path_397" data-name="Path 397" d="M495.188,409.823a1.961,1.961,0,0,0-.257-1.416q-11.268-22.058-22.54-44.116c-5-9.791-10.043-19.644-16.791-28.362-4.377-5.655-10.3-11.592-17.99-9.412-7.743,2.194-13.135,9.928-15.034,18.045s-.917,16.633.268,24.9c1.361,9.474,6.051,61.137,15.716,62.331,3.172.393,10.564-5.415,13.574-6.849q7.149-3.406,14.545-6.219t14.967-5.015c2.421-.7,4.892-1.257,7.339-1.857C490.7,411.426,494.714,411.545,495.188,409.823Z" transform="translate(-421.507 -296.584)" fill="#fdc606"/>
        <g id="Group_240" data-name="Group 240" transform="translate(81.809 2.16)">
          <path id="Path_398" data-name="Path 398" d="M459.32,312.512a285.294,285.294,0,0,0,58.411,137.409" transform="translate(-459.32 -312.512)" fill="none" stroke="#630b7f" stroke-miterlimit="10" stroke-width="0.841"/>
          <path id="Path_399" data-name="Path 399" d="M486.4,312.542a442.214,442.214,0,0,1,.18,142.715" transform="translate(-427.815 -312.482)" fill="none" stroke="#333" stroke-miterlimit="10" stroke-width="0.841"/>
        </g>
        <path id="Path_401" data-name="Path 401" d="M522.136,407.824l-39.644,3.434a4.013,4.013,0,0,1-4.368-3.606l-1.815-20.326a3.988,3.988,0,0,1,3.663-4.3l39.642-3.434a4.012,4.012,0,0,1,4.368,3.606l1.815,20.326A3.987,3.987,0,0,1,522.136,407.824Z" transform="translate(-357.763 -242.172)" fill="#cf74ec" stroke="#630b7f" stroke-width="2"/>
      </g>
      <path id="Path_402" data-name="Path 402" d="M444.718,266.834a7.432,7.432,0,0,0-2.689,9.212,8.832,8.832,0,0,0,3.453,3.63" transform="translate(-107.191 -53.399)" fill="none" stroke="#e59e6e" stroke-linecap="round" stroke-linejoin="round" stroke-width="0.561"/>
      <path id="Path_403" data-name="Path 403" d="M481.989,277.37a23.6,23.6,0,0,1,2.107-10.126c1.021-2.245,2.572-4.473,4.935-5.272a7.357,7.357,0,0,1,7.285,2.077,14.789,14.789,0,0,1,3.52,6.972,32.837,32.837,0,0,1,.974,6.659" transform="translate(-59.939 -58.645)" fill="none" stroke="#68411d" stroke-miterlimit="10" stroke-width="0.841"/>
      <path id="Path_404" data-name="Path 404" d="M459.144,278.435a23.6,23.6,0,0,1,2.107-10.126c1.021-2.245,2.572-4.475,4.935-5.272a7.357,7.357,0,0,1,7.285,2.077,14.79,14.79,0,0,1,3.52,6.972,32.848,32.848,0,0,1,.974,6.659" transform="translate(-86.52 -57.562)" fill="none" stroke="#68411d" stroke-miterlimit="10" stroke-width="0.841"/>
      <path id="Path_405" data-name="Path 405" d="M482.011,276.721c0,3.182-6.573,5.762-14.679,5.762s-14.68-2.579-14.68-5.762,6.573-5.762,14.68-5.762S482.011,273.538,482.011,276.721Z" transform="translate(-94.069 -49.205)" fill="#fcc2a2"/>
      <path id="Path_406" data-name="Path 406" d="M469.447,275.288c1.116,5.427-1.887,10.963-5.943,14.794s-9.123,6.431-13.682,9.67c-19.645,13.955-8.5,32.944-11.495,52.187-1.428,9.154-8.286,18.856-15.878,24.143-3.641,2.535-7.895,4.527-10.359,8.188-2.319,3.44-2.655,7.8-2.57,11.928" transform="translate(-144.268 -44.804)" fill="none" stroke="#392a51" stroke-miterlimit="10" stroke-width="1.121"/>
      <path id="Path_407" data-name="Path 407" d="M453.964,291.759a31.548,31.548,0,0,1-5.937,14.915c-3.5,4.731-8.425,8.7-10.114,14.306-2.508,8.319,2.819,18.12-1.627,25.612" transform="translate(-113.111 -28.059)" fill="none" stroke="#392a51" stroke-miterlimit="10" stroke-width="1.121"/>
      <path id="Path_408" data-name="Path 408" d="M482.34,258.042a19.47,19.47,0,0,1,19.987,1.892" transform="translate(-59.527 -64.287)" fill="none" stroke="#68411d" stroke-miterlimit="10" stroke-width="0.841"/>
      <path id="Path_409" data-name="Path 409" d="M464.078,379.709a3.176,3.176,0,0,0-1.519-.662,2.123,2.123,0,0,0-1.973,2.214,5.567,5.567,0,0,0,1.257,3.009,44.25,44.25,0,0,0,7.925,8.664,48.512,48.512,0,0,1-15.923-1.942,7.82,7.82,0,0,0-3.2-.514,2.368,2.368,0,0,0-2.177,2.031,3.053,3.053,0,0,0,1.054,2.031,15.355,15.355,0,0,0,5.114,3.519,7.735,7.735,0,0,0-3.2-.482,2.6,2.6,0,0,0-2.317,1.942c-.206,1.357,1.073,2.45,2.244,3.192a45.289,45.289,0,0,0,13.7,5.78,9.647,9.647,0,0,0-3.81-.266,3.21,3.21,0,0,0-2.659,2.406c-.249,1.664,1.318,3.033,2.843,3.789,4.072,2.025,8.8,2.184,13.245,3.209,6.506,1.5,12.39,4.858,18.632,7.21a2.5,2.5,0,0,0,2.334.052,2.054,2.054,0,0,0,.653-1.115,6.947,6.947,0,0,0-1.261-6.238,18.789,18.789,0,0,1-1.854-2.206c-1.026-1.771-.534-3.983-.8-6.006C490.39,394.045,475.168,387.652,464.078,379.709Z" transform="translate(-98.933 60.681)" fill="#f9b485"/>
      <path id="Path_411" data-name="Path 411" d="M619.919,249.452a403.185,403.185,0,0,0,40.789,167.719c14.779,30.232,33.587,59.29,40.017,92.24" transform="translate(100.549 -71.07)" fill="none" stroke="#e5d7fa" stroke-miterlimit="10" stroke-width="1.121"/>
      <path id="Path_412" data-name="Path 412" d="M540.721,213.951A13.354,13.354,0,1,1,527.37,200.8,13.253,13.253,0,0,1,540.721,213.951Z" transform="translate(-22.67 -120.535)" fill="#fdc606"/>
      <path id="Path_413" data-name="Path 413" d="M385.492,338.8a13.354,13.354,0,1,1-13.351-13.153A13.253,13.253,0,0,1,385.492,338.8Z" transform="translate(-203.282 6.392)" fill="#fdc606"/>
      <ellipse id="Ellipse_26" data-name="Ellipse 26" cx="13.352" cy="13.151" rx="13.352" ry="13.151" transform="translate(87.423 423.372)" fill="#630b7f"/>
      <path id="Path_414" data-name="Path 414" d="M387.406,293.576a10.554,10.554,0,1,1-10.554-10.4A10.474,10.474,0,0,1,387.406,293.576Z" transform="translate(-194.54 -36.781)" fill="#630b7f"/>
      <ellipse id="Ellipse_27" data-name="Ellipse 27" cx="13.352" cy="13.151" rx="13.352" ry="13.151" transform="translate(573.25 259.706)" fill="#630b7f"/>
      <path id="Path_415" data-name="Path 415" d="M623.2,415.174a13.354,13.354,0,1,1-13.351-13.151A13.252,13.252,0,0,1,623.2,415.174Z" transform="translate(73.29 84.042)" fill="#630b7f"/>
      <path id="Path_416" data-name="Path 416" d="M552.787,287.5a6.606,6.606,0,1,1-6.605-6.506A6.556,6.556,0,0,1,552.787,287.5Z" transform="translate(7.07 -39.006)" fill="#fff"/>
      <path id="Path_417" data-name="Path 417" d="M356.61,410.98a6.606,6.606,0,1,1-6.605-6.508A6.557,6.557,0,0,1,356.61,410.98Z" transform="translate(-221.186 86.532)" fill="#f89a1d"/>
      <path id="Path_418" data-name="Path 418" d="M610.706,380.558a6.606,6.606,0,1,1-6.605-6.506A6.556,6.556,0,0,1,610.706,380.558Z" transform="translate(53.459 -72.395)" fill="#f89a1d"/>
      <path id="Path_419" data-name="Path 419" d="M556.11,318.795a6.606,6.606,0,1,1-6.605-6.506A6.556,6.556,0,0,1,556.11,318.795Z" transform="translate(10.935 -7.187)" fill="#f89a1d"/>
      <path id="Path_420" data-name="Path 420" d="M644.522,400.781a6.606,6.606,0,1,1-6.605-6.506A6.558,6.558,0,0,1,644.522,400.781Z" transform="translate(113.805 76.165)" fill="#630b7f"/>
      <path id="Path_421" data-name="Path 421" d="M346.3,318.447a6.606,6.606,0,1,1-6.605-6.506A6.556,6.556,0,0,1,346.3,318.447Z" transform="translate(-233.178 -7.541)" fill="#fbb005"/>
      <ellipse id="Ellipse_28" data-name="Ellipse 28" cx="6.605" cy="6.506" rx="6.605" ry="6.506" transform="translate(651.22 406.884)" fill="#fdc606"/>
      <path id="Path_422" data-name="Path 422" d="M533.723,365.862l-30.374,3.751a3.2,3.2,0,0,1-3.589-2.747l-1-7.831a3.174,3.174,0,0,1,2.789-3.533l30.376-3.751a3.2,3.2,0,0,1,3.587,2.747l1,7.831A3.175,3.175,0,0,1,533.723,365.862Z" transform="translate(-40.448 32.908)" fill="#220d2d"/>
      <g id="Group_242" data-name="Group 242" transform="translate(237.082 583.046)">
        <path id="Path_423" data-name="Path 423" d="M775.427,468.618H405.887a9.325,9.325,0,0,1-9.394-9.252h0a9.324,9.324,0,0,1,9.394-9.252h369.54a9.322,9.322,0,0,1,9.392,9.252h0A9.323,9.323,0,0,1,775.427,468.618Z" transform="translate(-396.493 -450.113)" fill="#220d2d"/>
        <path id="Path_424" data-name="Path 424" d="M513.815,453.458c37.072.319,74.139.992,111.2,1.666" transform="translate(-259.987 -446.712)" fill="none" stroke="#8c5c07" stroke-miterlimit="10" stroke-width="0.561" style="mix-blend-mode: multiply;isolation: isolate"/>
        <path id="Path_425" data-name="Path 425" d="M409.025,456.825c37.072.317,74.139.992,111.207,1.666" transform="translate(-381.912 -443.289)" fill="none" stroke="#8c5c07" stroke-miterlimit="10" stroke-width="0.561" style="mix-blend-mode: multiply;isolation: isolate"/>
        <path id="Path_426" data-name="Path 426" d="M415.137,454.672c37.072.319,74.139.992,111.2,1.666" transform="translate(-374.8 -445.478)" fill="none" stroke="#8c5c07" stroke-miterlimit="10" stroke-width="0.561" style="mix-blend-mode: multiply;isolation: isolate"/>
        <path id="Path_427" data-name="Path 427" d="M476.379,455.355c37.072.317,74.139.992,111.207,1.666" transform="translate(-303.544 -444.784)" fill="none" stroke="#8c5c07" stroke-miterlimit="10" stroke-width="0.561" style="mix-blend-mode: multiply;isolation: isolate"/>
        <path id="Path_428" data-name="Path 428" d="M448.953,452.854c37.072.319,74.139.992,111.207,1.666" transform="translate(-335.455 -447.326)" fill="none" stroke="#8c5c07" stroke-miterlimit="10" stroke-width="0.561" style="mix-blend-mode: multiply;isolation: isolate"/>
      </g>
      <path id="Path_429" data-name="Path 429" d="M306.092,350.361c-13.857,60.143,3.154,126.39,44.376,172.811" transform="translate(-270.114 31.519)" fill="none" stroke="#e5d7fa" stroke-miterlimit="10" stroke-width="1.121"/>
      <path id="Path_430" data-name="Path 430" d="M616.611,225.463a89.828,89.828,0,0,1,2.665,23.091" transform="translate(96.7 -95.459)" fill="none" stroke="#e5d7fa" stroke-miterlimit="10" stroke-width="1.121"/>
    </g>
    <path id="Path_431" data-name="Path 431" d="M449.463,254.539a22.141,22.141,0,0,0-1.8,2.641,34.443,34.443,0,0,0-2.878,7.575c-3.487,11.959-7.856,20.913-21.674,23.82-9.357,1.968-21.032-.223-25.606-9.183-2.743-5.259-2.25-11.571-.532-17.214,3.2-10.5,10.375-19.669,19.3-26.487s19.545-11.4,30.51-14.445a11.288,11.288,0,0,1,3.881-.58,8.086,8.086,0,0,1,3.987,1.617,14.805,14.805,0,0,1,5.7,13.035c-.339,4.9-2.716,9.511-5.868,13.384C452.87,250.687,451.034,252.529,449.463,254.539Z" transform="translate(564.695 88.714)" fill="#fcfaff"/>
    <path id="Path_434" data-name="Path 434" d="M429.716,212.57c-2.551,4.537-6.6,7.306-6.509,12.459.123,6.643,6.877,13.88,14.126,10.488a14.117,14.117,0,0,0,5.561-5.107c2.7-4.053,4-9.188,2.457-13.764-2.028-6-12.334-11.789-16.025-3.93" transform="translate(603.562 74.833)" fill="#fcfaff"/>
  </g>
</svg>
