<svg xmlns="http://www.w3.org/2000/svg" width="1920.622" height="939.473" viewBox="0 0 1920.622 939.473">
  <g id="Group_90" data-name="Group 90" transform="translate(0.311 -140.606)">
    <g id="Group_89" data-name="Group 89" transform="translate(194.633 154.476)" opacity="0.15" style="isolation: isolate">
      <g id="Group_39" data-name="Group 39" transform="translate(4.366 164.551)">
        <path id="Path_21" data-name="Path 21" d="M287.206,550.468l-1.846-.359L-9.914,492.564l.621-.586,98.1-92.442.3.225ZM-8.071,492.031,283.683,548.89,88.869,400.683Z" transform="translate(9.914 -399.536)" fill="#630b7f"/>
        <path id="Path_22" data-name="Path 22" d="M-8.8,492.807l-.147-.864L92.266,474.606l-3.743-74.4.874-.044,3.782,75.173-.383.066Z" transform="translate(9.794 -399.614)" fill="#630b7f"/>
        <rect id="Rectangle_40" data-name="Rectangle 40" width="0.875" height="206.835" transform="translate(102.358 75.766) rotate(-68.804)" fill="#630b7f"/>
      </g>
      <g id="Group_40" data-name="Group 40" transform="translate(911.756 255.132)">
        <path id="Path_23" data-name="Path 23" d="M535.541,306.334l-.3.574-47.354,91.784-.109-.258-17.341-40.812.1-.076Zm-47.618,91.7,46.789-90.69-63.925,50.361Z" transform="translate(-470.441 -306.334)" fill="#630b7f"/>
        <path id="Path_24" data-name="Path 24" d="M488.062,405.633l-.271-.032,5.244-34.889-22.44-5.65.076-.292,22.674,5.708-.02.132Z" transform="translate(-470.46 -313.587)" fill="#630b7f"/>
        <path id="Path_25" data-name="Path 25" d="M538.437,306.989l-41.955,56.5-.209-.18,41.955-56.5Z" transform="translate(-473.647 -306.393)" fill="#630b7f"/>
      </g>
      <g id="Group_41" data-name="Group 41" transform="translate(421.842 575.98)">
        <path id="Path_26" data-name="Path 26" d="M626.54,939.564l-1.049.561L457.479,1029.92l.1-.507,16.52-80.025.227-.014Zm-168.328,89.394,166.009-88.725L474.537,949.88Z" transform="translate(-457.479 -939.564)" fill="#630b7f"/>
        <path id="Path_27" data-name="Path 27" d="M458.06,1031.005l-.378-.331,44.534-47.453-28.081-32,.422-.363,28.374,32.338-.169.18Z" transform="translate(-457.504 -940.965)" fill="#630b7f"/>
        <path id="Path_28" data-name="Path 28" d="M631.823,940.157,508.989,982.064l-.129-.491,122.833-41.907Z" transform="translate(-463.856 -939.577)" fill="#630b7f"/>
      </g>
      <g id="Group_42" data-name="Group 42" transform="translate(-169.633 535.199)">
        <path id="Path_29" data-name="Path 29" d="M316.379,729.855l-2.73,2.326-436.906,372-.135-1.623L-144.633,846.32l.686-.173ZM-121.863,1100.8l431.7-367.566L-142.852,847.593Z" transform="translate(144.633 -729.855)" fill="#630b7f"/>
        <path id="Path_30" data-name="Path 30" d="M-121.771,1119.39l-1.463-.808,94.479-171.577-115.417-82.872.973-1.357,116.622,83.737-.357.65Z" transform="translate(144.576 -746.352)" fill="#630b7f"/>
        <rect id="Rectangle_41" data-name="Rectangle 41" width="394.53" height="1.669" transform="matrix(0.864, -0.504, 0.504, 0.864, 116.489, 199.686)" fill="#630b7f"/>
      </g>
      <g id="Group_44" data-name="Group 44" transform="translate(1471.713 41.743)">
        <path id="Path_33" data-name="Path 33" d="M1737.694,424.417l-1.314-.429L1509.247,349.71l127.37-120.021Zm-226.287-75.19,224.011,73.257L1636.3,231.535Z" transform="translate(-1509.247 -229.689)" fill="#630b7f"/>
        <path id="Path_34" data-name="Path 34" d="M1510.617,350.12l-.32-1.083,102.216-30.231,23.531-88.23,1.092.291-23.694,88.842-.3.09Z" transform="translate(-1509.377 -229.799)" fill="#630b7f"/>
        <rect id="Rectangle_43" data-name="Rectangle 43" width="1.128" height="161.811" transform="translate(103.237 89.891) rotate(-49.864)" fill="#630b7f"/>
      </g>
      <g id="Group_45" data-name="Group 45" transform="translate(708.562 87.524)">
        <path id="Path_35" data-name="Path 35" d="M232.179,195.077l-96.873-80.4L227.09,84.41l.018.41ZM136.57,114.918,231.492,193.7,226.505,85.26Z" transform="translate(-135.306 -84.41)" fill="#630b7f"/>
        <path id="Path_36" data-name="Path 36" d="M182,139.678l-.225-.12L135.86,115.105l.293-.55,45.689,24.334,44.784-54.221.481.4Z" transform="translate(-135.375 -84.442)" fill="#630b7f"/>
        <rect id="Rectangle_44" data-name="Rectangle 44" width="0.623" height="74.42" transform="translate(46.315 55.051) rotate(-42.194)" fill="#630b7f"/>
      </g>
      <g id="Group_46" data-name="Group 46" transform="translate(734.992 715.327)">
        <path id="Path_37" data-name="Path 37" d="M1641.382,1070.15l-96.873-80.4,91.784-30.269.019.41Zm-95.609-80.159,94.922,78.778-4.986-108.437Z" transform="translate(-1544.509 -959.483)" fill="#630b7f"/>
        <path id="Path_38" data-name="Path 38" d="M1591.2,1014.751l-.225-.12-45.914-24.453.294-.55,45.688,24.334,44.784-54.221.481.4Z" transform="translate(-1544.578 -959.515)" fill="#630b7f"/>
        <rect id="Rectangle_45" data-name="Rectangle 45" width="0.623" height="74.42" transform="translate(46.315 55.051) rotate(-42.194)" fill="#630b7f"/>
      </g>
      <path id="Path_39" data-name="Path 39" d="M1189.654,893.115l-39.661,28.274-.362-75.292Zm-39.246,27.463,38.632-27.54-38.984-45.8Z" transform="translate(442.501 -462.639)" fill="#630b7f"/>
      <path id="Path_40" data-name="Path 40" d="M853.816,143.266,767.286,87.85l60.54-20.473ZM769.294,88.1l82.879,53.08L827.281,68.487Z" transform="translate(-492.197 5.228)" fill="#630b7f"/>
      <path id="Path_42" data-name="Path 42" d="M1326.079,315.313l-43.825-28.067,30.662-10.369Zm-42.807-27.943,41.976,26.884-12.607-36.815Z" transform="translate(-162.295 -154.59)" fill="#630b7f"/>
      <path id="Path_43" data-name="Path 43" d="M1477.875,160.035l-3.761-103.193.326-.1,43.843-12.98Zm-2.861-102.545,3.566,97.848,38.315-110.248Z" transform="translate(-255.848 215.274)" fill="#630b7f"/>
      <g id="Group_47" data-name="Group 47" transform="translate(650.52 247.304)">
        <path id="Path_44" data-name="Path 44" d="M444.471,137.96,436,91.352l56.165,52.8Zm-8-45.758,8.249,45.4,46.459,6.03Z" transform="translate(-436.002 -91.352)" fill="#630b7f"/>
        <path id="Path_45" data-name="Path 45" d="M461.946,134.988,436.129,91.9l.248-.137,25.695,42.888,29.592,9.1.051.395Z" transform="translate(-436.018 -91.403)" fill="#630b7f"/>
        <path id="Path_46" data-name="Path 46" d="M445.888,144.106l-.171-.4,17.4-3.013.171.4Z" transform="translate(-437.208 -97.475)" fill="#630b7f"/>
      </g>
      <g id="Group_48" data-name="Group 48" transform="translate(1048.567 503.64)">
        <path id="Path_47" data-name="Path 47" d="M1417.66,681.156l-86.708-55.529,65.492-10.19Zm-84.288-55.02,82.7,52.966-20.235-62.686Z" transform="translate(-1330.952 -615.437)" fill="#630b7f"/>
        <path id="Path_48" data-name="Path 48" d="M1375.7,630.165l-.153-.014-43.255-3.815.077-.872,43.1,3.8,20.6-13.684.484.729Z" transform="translate(-1331.118 -615.455)" fill="#630b7f"/>
        <rect id="Rectangle_46" data-name="Rectangle 46" width="0.876" height="65.281" transform="matrix(0.773, -0.635, 0.635, 0.773, 44.126, 14.538)" fill="#630b7f"/>
      </g>
      <path id="Path_51" data-name="Path 51" d="M1661.308,565.609l-31.9,18.557-18.557-31.895,31.895-18.558Zm-29.24,8.514,19.2-11.169-11.17-19.2-19.2,11.17Z" transform="translate(-231.338 -208.696)" fill="#630b7f"/>
      <path id="Path_52" data-name="Path 52" d="M698.3,1073.52l-31.9,18.558-18.558-31.9,31.9-18.557Zm-29.241,8.515,19.2-11.17-11.169-19.2-19.2,11.169Z" transform="translate(302.024 -975.689)" fill="#630b7f"/>
      <g id="Group_50" data-name="Group 50" transform="translate(470.789 161.697)">
        <path id="Path_53" data-name="Path 53" d="M1086.2,155.606l-5.125,7.606-11.5-7.747-7.747,11.5-7.606-5.125,7.747-11.5-11.5-7.747,5.125-7.606,11.5,7.747,7.747-11.5,7.606,5.125-7.747,11.5Z" transform="translate(-1050.474 -131.236)" fill="#630b7f"/>
      </g>
      <g id="Group_51" data-name="Group 51" transform="translate(-90.724 396.946)">
        <path id="Path_54" data-name="Path 54" d="M85.08,674.049l-5.125,7.606-11.5-7.747-7.747,11.5L53.1,680.282l7.747-11.5-11.5-7.747,5.125-7.606,11.5,7.747,7.747-11.5,7.606,5.125-7.747,11.5Z" transform="translate(-49.352 -649.679)" fill="#630b7f"/>
      </g>
      <path id="Path_55" data-name="Path 55" d="M379.515,908.849a23.036,23.036,0,1,1,23.036-23.037A23.062,23.062,0,0,1,379.515,908.849Zm0-36.9a13.865,13.865,0,1,0,13.864,13.864A13.88,13.88,0,0,0,379.515,871.947Z" transform="translate(-88.571 -53.197)" fill="#630b7f"/>
      <path id="Path_56" data-name="Path 56" d="M1665.193,105.152a23.036,23.036,0,1,1,23.037-23.036A23.062,23.062,0,0,1,1665.193,105.152Zm0-36.9a13.865,13.865,0,1,0,13.865,13.865A13.881,13.881,0,0,0,1665.193,68.25Z" transform="translate(-332.03 595.258)" fill="#630b7f"/>
      <path id="Path_57" data-name="Path 57" d="M151.745,347.649,127.13,320.157l2.208-7.483,39.8-10.87,5.473,6.112-15.184,38.361Zm-12.834-28.081L153.628,336l9.078-22.935Z" transform="translate(-277.729 -181.78)" fill="#630b7f"/>
      <path id="Path_58" data-name="Path 58" d="M1385.56,952.987,1360.944,925.5l2.208-7.483,39.8-10.87,5.472,6.111-15.183,38.361Zm-12.833-28.082,14.717,16.436,9.078-22.934Z" transform="translate(-147.075 -101.101)" fill="#630b7f"/>
      <g id="Group_53" data-name="Group 53" transform="translate(1472.567 767.034)">
        <path id="Path_47-2" data-name="Path 47" d="M1417.66,681.156l-86.708-55.529,65.492-10.19Zm-84.288-55.02,82.7,52.966-20.235-62.686Z" transform="translate(-1330.952 -615.437)" fill="#630b7f"/>
        <path id="Path_48-2" data-name="Path 48" d="M1375.7,630.165l-.153-.014-43.255-3.815.077-.872,43.1,3.8,20.6-13.684.484.729Z" transform="translate(-1331.118 -615.455)" fill="#630b7f"/>
        <rect id="Rectangle_46-2" data-name="Rectangle 46" width="0.876" height="65.281" transform="matrix(0.773, -0.635, 0.635, 0.773, 44.126, 14.538)" fill="#630b7f"/>
      </g>
      <g id="Group_54" data-name="Group 54" transform="translate(1642.771 629.411) rotate(43)">
        <path id="Path_53-2" data-name="Path 53" d="M35.728,24.37,30.6,31.976,19.1,24.229l-7.747,11.5L3.751,30.6,11.5,19.1,0,11.358,5.125,3.752l11.5,7.747L24.37,0l7.606,5.125-7.747,11.5Z" fill="#630b7f"/>
      </g>
      <path id="Path_59" data-name="Path 59" d="M24.616,45.844,0,18.352,2.208,10.87,42.008,0l5.472,6.111L32.3,44.472ZM11.782,17.762,26.5,34.2l9.078-22.934Z" transform="translate(734.702 513.791) rotate(-69)" fill="#630b7f"/>
      <g id="Group_55" data-name="Group 55" transform="matrix(0.035, 0.999, -0.999, 0.035, 1064.006, 721.355)">
        <path id="Path_44-2" data-name="Path 44" d="M8.469,46.608,0,0,56.165,52.8ZM.471.85l8.249,45.4,46.459,6.03Z" fill="#630b7f"/>
        <path id="Path_45-2" data-name="Path 45" d="M25.817,43.228,0,.137.248,0,25.943,42.888l29.592,9.1.051.395Z" transform="translate(0.112 0.357)" fill="#630b7f"/>
        <path id="Path_46-2" data-name="Path 46" d="M.171,3.417,0,3.013,17.4,0l.171.4Z" transform="translate(8.509 43.213)" fill="#630b7f"/>
      </g>
      <g id="Group_56" data-name="Group 56" transform="translate(1345.283 535.035) rotate(14)">
        <path id="Path_26-2" data-name="Path 26" d="M169.061,0l-1.049.561L0,90.356l.1-.507L16.624,9.824l.227-.014ZM.733,89.394,166.743.669,17.058,10.316Z" fill="#630b7f"/>
        <path id="Path_27-2" data-name="Path 27" d="M.378,80.151,0,79.82,44.534,32.367,16.452.363,16.874,0,45.249,32.338l-.169.18Z" transform="translate(0.178 9.889)" fill="#630b7f"/>
        <path id="Path_28-2" data-name="Path 28" d="M122.962.491.129,42.4,0,41.907,122.833,0Z" transform="translate(45.004 0.089)" fill="#630b7f"/>
      </g>
    </g>
    <g id="Group_79" data-name="Group 79" transform="translate(-35.412 143.177)" opacity="0.9">
      <g id="Group_58" data-name="Group 58" transform="translate(43.082 -2.571)" opacity="0.6">
        <circle id="Ellipse_1" data-name="Ellipse 1" cx="16.741" cy="16.741" r="16.741" transform="translate(83.887 354.715)" fill="#630b7f" opacity="0.59"/>
        <circle id="Ellipse_2" data-name="Ellipse 2" cx="11.808" cy="11.808" r="11.808" transform="translate(66.445 203.837)" fill="#630b7f"/>
        <circle id="Ellipse_3" data-name="Ellipse 3" cx="10.59" cy="10.59" r="10.59" transform="translate(38.206)" fill="#ffd200"/>
        <circle id="Ellipse_4" data-name="Ellipse 4" cx="19.13" cy="19.13" r="19.13" transform="translate(539.512 418.493)" fill="#630b7f" opacity="0.59"/>
        <circle id="Ellipse_6" data-name="Ellipse 6" cx="12.585" cy="12.585" r="12.585" transform="translate(1865.336 339.587)" fill="#acd200" opacity="0.59"/>
        <circle id="Ellipse_7" data-name="Ellipse 7" cx="7.524" cy="7.524" r="7.524" transform="translate(1834.184 263.917)" fill="#630b7f" opacity="0.59"/>
        <circle id="Ellipse_8" data-name="Ellipse 8" cx="19.13" cy="19.13" r="19.13" transform="translate(1325.211 355.217)" fill="#630b7f" opacity="0.59"/>
        <circle id="Ellipse_9" data-name="Ellipse 9" cx="19.13" cy="19.13" r="19.13" transform="translate(1778.865 420.308)" fill="#630b7f" opacity="0.59"/>
        <circle id="Ellipse_10" data-name="Ellipse 10" cx="14.746" cy="14.746" r="14.746" transform="translate(435.21 666.178)" fill="#630b7f" opacity="0.59"/>
        <circle id="Ellipse_11" data-name="Ellipse 11" cx="11.026" cy="11.026" r="11.026" transform="translate(1541.913 668.117)" fill="#630b7f" opacity="0.59"/>
        <circle id="Ellipse_12" data-name="Ellipse 12" cx="11.026" cy="11.026" r="11.026" transform="translate(218.49 855.613)" fill="#ffe53b" opacity="0.59"/>
        <circle id="Ellipse_14" data-name="Ellipse 14" cx="9.412" cy="9.412" r="9.412" transform="translate(762.877 389.924)" fill="#ffd200" opacity="0.59"/>
        <circle id="Ellipse_15" data-name="Ellipse 15" cx="11.026" cy="11.026" r="11.026" transform="translate(1195.115 3.538)" fill="#630b7f" opacity="0.59"/>
        <circle id="Ellipse_16" data-name="Ellipse 16" cx="11.026" cy="11.026" r="11.026" transform="translate(990.677 592.305)" fill="#630b7f" opacity="0.59"/>
        <rect id="Rectangle_47" data-name="Rectangle 47" width="21.04" height="21.04" transform="matrix(0.767, -0.642, 0.642, 0.767, 419.762, 24.604)" fill="#630b7f"/>
        <rect id="Rectangle_48" data-name="Rectangle 48" width="17.593" height="17.593" transform="translate(793.343 915.497) rotate(152.644)" fill="#630b7f" opacity="0.6"/>
        <rect id="Rectangle_49" data-name="Rectangle 49" width="16.193" height="16.193" transform="translate(1796.696 68.873) rotate(38.486)" fill="#630b7f"/>
        <rect id="Rectangle_50" data-name="Rectangle 50" width="17.173" height="17.173" transform="translate(27.519 437.852) rotate(-141.514)" fill="#630b7f"/>
        <rect id="Rectangle_51" data-name="Rectangle 51" width="16.595" height="16.595" transform="translate(111.123 610.664) rotate(-146.051)" fill="#630b7f"/>
        <rect id="Rectangle_52" data-name="Rectangle 52" width="20.598" height="20.598" transform="matrix(0.268, -0.964, 0.964, 0.268, 1680.803, 933.962)" fill="#630b7f" opacity="0.6"/>
        <rect id="Rectangle_53" data-name="Rectangle 53" width="19.616" height="19.616" transform="matrix(-0.119, -0.993, 0.993, -0.119, 545.052, 91.159)" fill="#630b7f"/>
        <rect id="Rectangle_54" data-name="Rectangle 54" width="17.546" height="17.546" transform="translate(1871.331 917.833) rotate(-74.48)" fill="#ff2525"/>
        <rect id="Rectangle_55" data-name="Rectangle 55" width="16.193" height="16.193" transform="translate(1522.357 9.803) rotate(38.486)" fill="#630b7f"/>
        <rect id="Rectangle_56" data-name="Rectangle 56" width="19.09" height="19.09" transform="matrix(-0.783, -0.622, 0.622, -0.783, 643.274, 865.92)" fill="#c4e200"/>
        <rect id="Rectangle_57" data-name="Rectangle 57" width="16.299" height="16.299" transform="matrix(-0.352, 0.936, -0.936, -0.352, 1370.97, 598.41)" fill="#630b7f"/>
        <rect id="Rectangle_58" data-name="Rectangle 58" width="13.371" height="13.371" transform="translate(1161.246 428.89) rotate(152.644)" fill="#630b7f"/>
        <circle id="Ellipse_17" data-name="Ellipse 17" cx="11.026" cy="11.026" r="11.026" transform="translate(681.288 639.517)" fill="#ff2525" opacity="0.59"/>
        <circle id="Ellipse_18" data-name="Ellipse 18" cx="11.026" cy="11.026" r="11.026" transform="translate(1267.071 205.036)" fill="#630b7f" opacity="0.59"/>
        <circle id="Ellipse_19" data-name="Ellipse 19" cx="11.026" cy="11.026" r="11.026" transform="translate(1181.942 661.613)" fill="#630b7f" opacity="0.59"/>
        <circle id="Ellipse_20" data-name="Ellipse 20" cx="11.026" cy="11.026" r="11.026" transform="translate(961.029 333.106)" fill="#630b7f" opacity="0.59"/>
        <path id="Path_60" data-name="Path 60" d="M196.543,250.018l-36.091,10.938,29.657,26.222Z" transform="translate(159.218 257.834)" fill="#630b7f"/>
        <path id="Path_61" data-name="Path 61" d="M400.592,423.977l-29.827,23.078,37.053,13.936Z" transform="translate(581.513 423.116)" fill="#ffd200"/>
        <path id="Path_62" data-name="Path 62" d="M67.688,139.445l-24.607-17.5v35.009Z" transform="translate(-43.082 127.79)" fill="#acd200"/>
        <path id="Path_63" data-name="Path 63" d="M469.343,139.445l-24.136-12.724v25.448Z" transform="translate(638.08 129.85)" fill="#630b7f"/>
        <path id="Path_64" data-name="Path 64" d="M313.994,38.214,285.065,62.408l37.556,12.518Z" transform="translate(432.901 12.571)" fill="#acd200"/>
        <path id="Path_65" data-name="Path 65" d="M723.171,40.236,691.739,61.075l35.937,16.6Z" transform="translate(1122.001 2.571)" fill="#acd200"/>
        <path id="Path_66" data-name="Path 66" d="M603.017,252.5l-36.091,10.938,29.657,26.222Z" transform="translate(859.821 260.339)" fill="#630b7f"/>
        <rect id="Rectangle_59" data-name="Rectangle 59" width="20.598" height="20.598" transform="matrix(0.268, -0.964, 0.964, 0.268, 1563.803, 858.962)" fill="#c4e200" opacity="0.6"/>
        <path id="Path_87" data-name="Path 87" d="M400.592,423.977l-29.827,23.078,37.053,13.936Z" transform="translate(-52.487 328.116)" fill="#630b7f"/>
      </g>
      <g id="Group_59" data-name="Group 59" transform="translate(446.959 189.602)">
        <path id="Path_67" data-name="Path 67" d="M187.187,88.9c4.667,3.357-2.341,13.1,2.326,16.456s11.675-6.384,16.342-3.027-2.339,13.1,2.329,16.457,11.677-6.382,16.347-3.023-2.339,13.1,2.329,16.458,11.679-6.381,16.351-3.02-2.336,13.1,2.336,16.462" transform="translate(-187.187 -88.904)" fill="none" stroke="#630b7f" stroke-miterlimit="10" stroke-width="2"/>
      </g>
      <g id="Group_60" data-name="Group 60" transform="translate(1513.487 62.214)">
        <path id="Path_68" data-name="Path 68" d="M575.8,62.214c5.312,3.576-1.389,13.531,3.923,17.107s12.014-6.377,17.327-2.8-1.388,13.532,3.926,17.11,12.018-6.376,17.334-2.8-1.388,13.532,3.926,17.109,12.02-6.374,17.338-2.794-1.384,13.535,3.934,17.115" transform="translate(-575.805 -62.214)" fill="none" stroke="#630b7f" stroke-miterlimit="10" stroke-width="2"/>
      </g>
      <g id="Group_61" data-name="Group 61" transform="translate(1539.947 194.32)">
        <path id="Path_69" data-name="Path 69" d="M583.69,91.366c5.516,3.253-.579,13.59,4.938,16.843s11.612-7.084,17.128-3.831-.577,13.591,4.942,16.844,11.615-7.081,17.135-3.826-.577,13.59,4.941,16.844,11.618-7.081,17.14-3.824-.573,13.593,4.949,16.849" transform="translate(-583.69 -91.366)" fill="none" stroke="#630b7f" stroke-miterlimit="10" stroke-width="2"/>
      </g>
      <g id="Group_62" data-name="Group 62" transform="translate(402.836 53.293)">
        <path id="Path_70" data-name="Path 70" d="M169.983,53.293c5.2,3.739-1.809,13.481,3.39,17.221s12.206-6,17.4-2.262-1.807,13.482,3.394,17.223,12.209-6,17.411-2.257-1.807,13.482,3.394,17.223,12.211-6,17.416-2.254-1.8,13.485,3.4,17.228" transform="translate(-169.983 -53.293)" fill="none" stroke="#630b7f" stroke-miterlimit="10" stroke-width="1"/>
      </g>
      <g id="Group_65" data-name="Group 65" transform="translate(1264.918 824.431)">
        <path id="Path_73" data-name="Path 73" d="M483.249,378.886c5.546,3.2-.454,13.6,5.093,16.8s11.546-7.19,17.092-3.988-.452,13.6,5.1,16.8,11.55-7.188,17.1-3.984-.452,13.6,5.1,16.8,11.552-7.187,17.1-3.982-.448,13.6,5.1,16.8" transform="translate(-483.249 -378.886)" fill="none" stroke="#3b55ff" stroke-miterlimit="10" stroke-width="1"/>
      </g>
      <g id="Group_66" data-name="Group 66" transform="translate(931.839 205.367)">
        <path id="Path_74" data-name="Path 74" d="M369.258,98.646c3.826,2.209-2.174,12.6,1.653,14.811s9.827-8.183,13.654-5.973-2.172,12.6,1.656,14.812,9.83-8.181,13.659-5.97-2.172,12.6,1.656,14.812,9.831-8.18,13.661-5.969-2.169,12.6,1.662,14.816" transform="translate(-369.258 -98.646)" fill="none" stroke="#630b7f" stroke-miterlimit="10" stroke-width="1"/>
      </g>
      <g id="Group_67" data-name="Group 67" transform="translate(904.738 158.041)">
        <path id="Path_75" data-name="Path 75" d="M355.474,73.879C360.2,76.607,354.2,87,358.925,89.727s10.725-7.664,15.45-4.936-1.273,13.121,3.453,15.85,10.728-7.662,15.456-4.933-1.273,13.122,3.454,15.851,10.729-7.662,15.459-4.931-1.27,13.123,3.46,15.854" transform="translate(-355.474 -73.879)" fill="none" stroke="#630b7f" stroke-miterlimit="10" stroke-width="1"/>
      </g>
      <g id="Group_68" data-name="Group 68" transform="translate(1301.205 859.734)">
        <path id="Path_76" data-name="Path 76" d="M492.824,406.189c5.546,3.2-.454,13.6,5.092,16.8s11.546-7.19,17.093-3.988-.452,13.6,5.1,16.8,11.55-7.188,17.1-3.984-.452,13.6,5.1,16.8,11.552-7.187,17.1-3.982-.448,13.6,5.1,16.8" transform="translate(-492.824 -406.189)" fill="none" stroke="#3b55ff" stroke-miterlimit="10" stroke-width="1"/>
      </g>
      <g id="Group_70" data-name="Group 70" transform="translate(1877.454 437.015)">
        <path id="Path_78" data-name="Path 78" d="M721.371,243.419c4.113,2.374-1.887,12.767,2.226,15.141s10.113-8.018,14.226-5.643-1.886,12.768,2.227,15.143,10.116-8.017,14.231-5.641-1.886,12.768,2.228,15.143,10.117-8.015,14.234-5.638-1.883,12.769,2.234,15.146" transform="translate(-721.371 -243.419)" fill="none" stroke="#ffe53b" stroke-miterlimit="10" stroke-width="2"/>
      </g>
      <g id="Group_72" data-name="Group 72" transform="translate(765.637 494.057)">
        <path id="Path_80" data-name="Path 80" d="M309.716,245.862c4.289,3.411-.689,9.673,3.6,13.083s9.27-2.851,13.56.56-.689,9.673,3.6,13.083,9.271-2.849,13.563.563-.686,9.675,3.606,13.088" transform="translate(-309.716 -245.862)" fill="none" stroke="#3b55ff" stroke-miterlimit="10" stroke-width="1"/>
      </g>
      <g id="Group_73" data-name="Group 73" transform="translate(1917.481 829.75)">
        <path id="Path_81" data-name="Path 81" d="M742.4,384.2c4.29,3.41-.689,9.672,3.6,13.082s9.27-2.851,13.561.561-.689,9.672,3.6,13.082,9.271-2.849,13.563.563-.686,9.675,3.607,13.088" transform="translate(-742.398 -384.205)" fill="none" stroke="#630b7f" stroke-miterlimit="10" stroke-width="1"/>
      </g>
      <g id="Group_75" data-name="Group 75" transform="translate(846.328 688.982)">
        <path id="Path_83" data-name="Path 83" d="M337.4,343.18c5.241,3.923.447,10.327,5.688,14.25s10.037-2.48,15.28,1.444.447,10.328,5.688,14.251,10.039-2.479,15.284,1.447.451,10.33,5.7,14.256" transform="translate(-337.403 -343.18)" fill="none" stroke="#630b7f" stroke-miterlimit="10" stroke-width="1"/>
      </g>
      <g id="Group_76" data-name="Group 76" transform="translate(39.04 503.213)">
        <path id="Path_84" data-name="Path 84" d="M39.04,250.528c4.289,3.41-.69,9.672,3.6,13.082s9.269-2.85,13.56.561-.689,9.672,3.6,13.083,9.271-2.85,13.564.563-.687,9.674,3.606,13.087" transform="translate(-39.04 -250.528)" fill="none" stroke="#630b7f" stroke-miterlimit="10" stroke-width="1"/>
      </g>
      <g id="Group_77" data-name="Group 77" transform="translate(35.412 18.463)">
        <path id="Path_85" data-name="Path 85" d="M35.412,18.463c4.289,3.41-.69,9.672,3.6,13.082s9.269-2.851,13.56.561-.689,9.672,3.6,13.082,9.271-2.849,13.563.564-.686,9.674,3.607,13.087" transform="translate(-35.412 -18.463)" fill="none" stroke="#630b7f" stroke-miterlimit="10" stroke-width="1"/>
      </g>
      <g id="Group_78" data-name="Group 78" transform="translate(1067.691 14.286)">
        <path id="Path_86" data-name="Path 86" d="M413.737,14.286c5.423,3.2-.673,13.535,4.75,16.732s11.52-7.138,16.944-3.939-.669,13.536,4.758,16.736,11.519-7.138,16.944-3.94-.667,13.538,4.761,16.739,11.524-7.136,16.952-3.935" transform="translate(-413.737 -14.286)" fill="none" stroke="#630b7f" stroke-miterlimit="10" stroke-width="2"/>
      </g>
      <g id="Group_80" data-name="Group 80" transform="translate(1903.454 537.759)" opacity="0.6">
        <path id="Path_78-2" data-name="Path 78" d="M721.371,243.419c4.113,2.374-1.887,12.767,2.226,15.141s10.113-8.018,14.226-5.643-1.886,12.768,2.227,15.143,10.116-8.017,14.231-5.641-1.886,12.768,2.228,15.143,10.117-8.015,14.234-5.638-1.883,12.769,2.234,15.146" transform="translate(-721.371 -243.419)" fill="none" stroke="#630b7f" stroke-miterlimit="10" stroke-width="2"/>
      </g>
    </g>
  </g>
</svg>
