<svg xmlns="http://www.w3.org/2000/svg" xmlns:xlink="http://www.w3.org/1999/xlink" width="952.078" height="664.927" viewBox="0 0 952.078 664.927">
  <defs>
    <linearGradient id="linear-gradient" y1="0.5" x2="1" y2="0.5" gradientUnits="objectBoundingBox">
      <stop offset="0" stop-color="#8a3a77"/>
      <stop offset="1" stop-color="#59275a"/>
    </linearGradient>
  </defs>
  <g id="Group_208" data-name="Group 208" transform="translate(-446.973 -864.049)">
    <path id="Path_179" data-name="Path 179" d="M559,1522.386c-17.935-30.04-89.613-31.025-78.781-105.594,3.472-23.906,36.28-52.346,59.434-61.341,89.3-34.8,66.94-71.928,28.27-134.989-30.073-67.213-14.621-184.015,52.885-221.258,44.84-21.811,123.46,10.634,169.944-7.668,50.154-19.747,55.165-75.455,103.529-99.015,145.093-70.682,356.963-6.1,363.559,153.095,12.025,290.232,247.172,179.453,83.473,479.409Z" fill="rgba(213,191,255,0.35)" opacity="0.25"/>
    <g id="Group_155" data-name="Group 155">
      <path id="Path_184" data-name="Path 184" d="M1263.523,1237.385a1.512,1.512,0,0,1-1.51-1.273,1.485,1.485,0,0,1,1.3-1.668c3.6-.489,7.384-1.113,11.246-1.855a1.527,1.527,0,0,1,1.8,1.162,1.48,1.48,0,0,1-1.2,1.737c-3.919.752-7.76,1.385-11.416,1.882A1.561,1.561,0,0,1,1263.523,1237.385Zm22.529-4.305a1.518,1.518,0,0,1-1.479-1.118,1.474,1.474,0,0,1,1.108-1.793c3.694-.9,7.387-1.895,10.975-2.961a1.539,1.539,0,0,1,1.908.979,1.469,1.469,0,0,1-1.012,1.846c-3.638,1.081-7.382,2.091-11.127,3A1.6,1.6,0,0,1,1286.052,1233.08Zm21.922-6.525a1.528,1.528,0,0,1-1.433-.967,1.464,1.464,0,0,1,.906-1.9c3.6-1.282,7.151-2.663,10.555-4.1a1.547,1.547,0,0,1,2.011.76,1.46,1.46,0,0,1-.786,1.946c-3.46,1.467-7.069,2.87-10.725,4.172A1.572,1.572,0,0,1,1307.974,1226.555Zm20.986-8.917a1.533,1.533,0,0,1-1.355-.8,1.455,1.455,0,0,1,.65-1.993c3.41-1.715,6.73-3.538,9.869-5.417a1.557,1.557,0,0,1,2.1.48,1.45,1.45,0,0,1-.495,2.033c-3.2,1.918-6.59,3.777-10.067,5.526A1.565,1.565,0,0,1,1328.96,1217.638Zm19.452-11.687a1.539,1.539,0,0,1-1.227-.6,1.445,1.445,0,0,1,.317-2.066c3.072-2.2,6.019-4.532,8.758-6.917a1.564,1.564,0,0,1,2.157.111,1.446,1.446,0,0,1-.115,2.087c-2.81,2.446-5.832,4.833-8.981,7.092A1.556,1.556,0,0,1,1348.412,1205.951Zm16.971-14.822a1.55,1.55,0,0,1-1.022-.38,1.445,1.445,0,0,1-.111-2.087,96.924,96.924,0,0,0,7.058-8.49,1.56,1.56,0,0,1,2.13-.343,1.448,1.448,0,0,1,.356,2.061,99.9,99.9,0,0,1-7.277,8.751A1.547,1.547,0,0,1,1365.383,1191.129Zm13.239-17.986a1.557,1.557,0,0,1-.73-.181,1.453,1.453,0,0,1-.608-2.005,88.106,88.106,0,0,0,4.776-9.84,1.545,1.545,0,0,1,1.983-.828,1.463,1.463,0,0,1,.855,1.919,91.219,91.219,0,0,1-4.934,10.166A1.537,1.537,0,0,1,1378.622,1173.143Zm8.43-20.5a1.563,1.563,0,0,1-.392-.05,1.474,1.474,0,0,1-1.085-1.807,94.886,94.886,0,0,0,2.26-10.658,1.52,1.52,0,0,1,1.734-1.245,1.486,1.486,0,0,1,1.287,1.678,97.85,97.85,0,0,1-2.329,10.982A1.519,1.519,0,0,1,1387.052,1152.647Zm3.524-21.835c-.035,0-.071,0-.107,0a1.5,1.5,0,0,1-1.418-1.576c.2-2.877.308-5.729.308-8.477,0-.826-.009-1.654-.028-2.461a1.528,1.528,0,0,1,3.053-.065c.019.829.029,1.679.029,2.526,0,2.815-.106,5.735-.316,8.679A1.507,1.507,0,0,1,1390.576,1130.812ZM1390,1108.7a1.512,1.512,0,0,1-1.512-1.284,80.086,80.086,0,0,0-2.18-10.663,1.473,1.473,0,0,1,1.075-1.812,1.534,1.534,0,0,1,1.872,1.042,82.873,82.873,0,0,1,2.261,11.046,1.488,1.488,0,0,1-1.314,1.658A1.528,1.528,0,0,1,1390,1108.7Zm-6.045-21.277a1.529,1.529,0,0,1-1.392-.871,56.926,56.926,0,0,0-5.493-9.377,1.448,1.448,0,0,1,.372-2.058,1.561,1.561,0,0,1,2.128.359,59.871,59.871,0,0,1,5.776,9.862,1.458,1.458,0,0,1-.764,1.954A1.564,1.564,0,0,1,1383.956,1087.424Zm-50.1-1.719a1.477,1.477,0,1,1-.093-2.952,37.594,37.594,0,0,0,10.691-2.284,1.542,1.542,0,0,1,1.972.85,1.463,1.463,0,0,1-.878,1.909,40.775,40.775,0,0,1-11.6,2.474Zm-11.255-1.491a1.564,1.564,0,0,1-.571-.107c-4.759-1.858-7.616-5.115-8.046-9.171a1.492,1.492,0,0,1,1.364-1.62,1.518,1.518,0,0,1,1.675,1.319c.4,3.733,3.562,5.721,6.15,6.731a1.462,1.462,0,0,1,.844,1.923A1.527,1.527,0,0,1,1322.6,1084.214Zm32.323-6.336a1.542,1.542,0,0,1-1.2-.561,1.445,1.445,0,0,1,.25-2.075,33.017,33.017,0,0,0,7.352-7.79,1.558,1.558,0,0,1,2.113-.433,1.449,1.449,0,0,1,.447,2.044,36,36,0,0,1-8.017,8.5A1.551,1.551,0,0,1,1354.928,1077.878Zm15.88-8.4a1.55,1.55,0,0,1-1.033-.39,47.261,47.261,0,0,0-8.954-6.29,1.452,1.452,0,0,1-.588-2.01,1.554,1.554,0,0,1,2.077-.57,50.3,50.3,0,0,1,9.532,6.7,1.443,1.443,0,0,1,.09,2.087A1.545,1.545,0,0,1,1370.808,1069.477Zm-51.527-3.4a1.545,1.545,0,0,1-.956-.327,1.445,1.445,0,0,1-.233-2.077,23.789,23.789,0,0,1,9.811-6.843,1.545,1.545,0,0,1,1.988.816,1.462,1.462,0,0,1-.844,1.924,20.765,20.765,0,0,0-8.575,5.956A1.547,1.547,0,0,1,1319.281,1066.077Zm47.959-6.418a1.591,1.591,0,0,1-.4-.053,1.472,1.472,0,0,1-1.071-1.814,41.175,41.175,0,0,0,1.475-10.573,1.5,1.5,0,0,1,1.526-1.457h.022a1.5,1.5,0,0,1,1.506,1.5,44.045,44.045,0,0,1-1.583,11.31A1.522,1.522,0,0,1,1367.24,1059.659Zm-16.258-.82a1.579,1.579,0,0,1-.389-.049,40.244,40.244,0,0,0-10.905-1.261,1.478,1.478,0,1,1-.081-2.954,43.4,43.4,0,0,1,11.761,1.357,1.473,1.473,0,0,1,1.089,1.8A1.521,1.521,0,0,1,1350.982,1058.839Zm16.816-21.145a1.514,1.514,0,0,1-1.5-1.222,77.921,77.921,0,0,0-2.732-10.544,1.468,1.468,0,0,1,.988-1.857,1.537,1.537,0,0,1,1.92.955,81.011,81.011,0,0,1,2.832,10.934,1.484,1.484,0,0,1-1.24,1.711A1.5,1.5,0,0,1,1367.8,1037.694Zm-6.852-21.089a1.531,1.531,0,0,1-1.4-.886c-1.444-3.194-3.112-6.51-4.959-9.856a1.454,1.454,0,0,1,.628-2,1.553,1.553,0,0,1,2.066.608c1.884,3.413,3.587,6.8,5.063,10.063a1.46,1.46,0,0,1-.788,1.945A1.55,1.55,0,0,1,1360.946,1016.6Zm-10.929-19.428a1.544,1.544,0,0,1-1.255-.634,84.755,84.755,0,0,0-7-8.5,1.443,1.443,0,0,1,.1-2.087,1.564,1.564,0,0,1,2.157.1,88.087,88.087,0,0,1,7.25,8.8,1.449,1.449,0,0,1-.381,2.057A1.564,1.564,0,0,1,1350.017,997.177Zm-15.327-16.361a1.553,1.553,0,0,1-.995-.357,99.79,99.79,0,0,0-8.953-6.623,1.447,1.447,0,0,1-.4-2.052,1.558,1.558,0,0,1,2.121-.391,102.869,102.869,0,0,1,9.227,6.825,1.445,1.445,0,0,1,.163,2.084A1.55,1.55,0,0,1,1334.69,980.816Zm-254.008-11.553a1.528,1.528,0,0,1-1.422-.938,1.462,1.462,0,0,1,.865-1.915c3.08-1.168,6.762-2.392,10.941-3.641a1.536,1.536,0,0,1,1.91.976,1.469,1.469,0,0,1-1.009,1.847c-4.108,1.228-7.718,2.428-10.728,3.569A1.561,1.561,0,0,1,1080.682,969.263Zm235.129-.923a1.548,1.548,0,0,1-.725-.179c-3.226-1.691-6.651-3.3-10.179-4.775a1.46,1.46,0,0,1-.794-1.943,1.547,1.547,0,0,1,2.008-.769c3.609,1.512,7.115,3.157,10.419,4.89a1.452,1.452,0,0,1,.615,2A1.534,1.534,0,0,1,1315.811,968.34Zm-213.276-5.723a1.519,1.519,0,0,1-1.475-1.1,1.472,1.472,0,0,1,1.085-1.806c3.566-.914,7.323-1.815,11.167-2.678a1.532,1.532,0,0,1,1.833,1.1,1.478,1.478,0,0,1-1.143,1.774c-3.813.856-7.539,1.749-11.075,2.655A1.606,1.606,0,0,1,1102.535,962.617Zm192.3-3.108a1.573,1.573,0,0,1-.5-.081c-3.476-1.159-7.126-2.244-10.848-3.223a1.473,1.473,0,0,1-1.073-1.813,1.533,1.533,0,0,1,1.874-1.038c3.787,1,7.5,2.1,11.043,3.28a1.468,1.468,0,0,1,.946,1.879A1.526,1.526,0,0,1,1294.837,959.509Zm-169.987-1.92a1.516,1.516,0,0,1-1.495-1.182,1.479,1.479,0,0,1,1.19-1.743c3.707-.733,7.5-1.438,11.288-2.094a1.523,1.523,0,0,1,1.772,1.194,1.481,1.481,0,0,1-1.234,1.714c-3.759.653-7.532,1.353-11.214,2.081A1.616,1.616,0,0,1,1124.85,957.589Zm22.55-3.914a1.513,1.513,0,0,1-1.507-1.251,1.483,1.483,0,0,1,1.274-1.686c3.777-.567,7.6-1.1,11.376-1.576a1.515,1.515,0,0,1,1.712,1.273,1.487,1.487,0,0,1-1.315,1.657c-3.748.476-7.552,1-11.3,1.565A1.579,1.579,0,0,1,1147.4,953.675Zm125.359-.006a1.627,1.627,0,0,1-.316-.031c-3.616-.737-7.38-1.405-11.188-1.987a1.484,1.484,0,0,1-1.27-1.689,1.519,1.519,0,0,1,1.746-1.229c3.858.589,7.674,1.266,11.341,2.012a1.478,1.478,0,0,1,1.179,1.75A1.515,1.515,0,0,1,1272.759,953.669Zm-102.644-2.874a1.51,1.51,0,0,1-1.517-1.321,1.491,1.491,0,0,1,1.356-1.626c3.817-.4,7.667-.746,11.443-1.045a1.514,1.514,0,0,1,1.646,1.352,1.493,1.493,0,0,1-1.4,1.593c-3.751.3-7.575.646-11.367,1.038A1.523,1.523,0,0,1,1170.115,950.795Zm80.029-.6a1.674,1.674,0,0,1-.172-.01c-3.687-.4-7.5-.737-11.345-1a1.494,1.494,0,0,1-1.414-1.579,1.514,1.514,0,0,1,1.632-1.368c3.882.268,7.74.61,11.467,1.014a1.489,1.489,0,0,1,1.348,1.632A1.512,1.512,0,0,1,1250.144,950.194Zm-57.2-1.2a1.477,1.477,0,1,1-.083-2.953c3.849-.207,7.713-.363,11.486-.464a1.519,1.519,0,0,1,1.568,1.436,1.5,1.5,0,0,1-1.484,1.518c-3.744.1-7.58.255-11.4.46C1193,948.992,1192.973,948.993,1192.944,948.993Zm34.353-.4h-.055c-3.725-.127-7.562-.2-11.4-.206a1.478,1.478,0,1,1,0-2.955h0c3.875.009,7.746.079,11.5.208a1.477,1.477,0,1,1-.053,2.954Z" fill="#220d2d"/>
    </g>
    <g id="Group_160" data-name="Group 160">
      <g id="Group_159" data-name="Group 159">
        <g id="Group_156" data-name="Group 156">
          <path id="Path_185" data-name="Path 185" d="M567.919,1334.255a1.561,1.561,0,0,1-.7-.164c-1.646-.824-3.353-1.595-5.075-2.291a1.462,1.462,0,0,1-.82-1.933,1.546,1.546,0,0,1,2-.794c1.8.727,3.582,1.532,5.3,2.393a1.455,1.455,0,0,1,.655,1.991A1.534,1.534,0,0,1,567.919,1334.255Z" fill="#220d2d"/>
        </g>
        <g id="Group_157" data-name="Group 157">
          <path id="Path_186" data-name="Path 186" d="M770.891,1502.057a1.536,1.536,0,0,1-1.345-.777,70.35,70.35,0,0,0-6.031-9,1.446,1.446,0,0,1,.3-2.07,1.562,1.562,0,0,1,2.139.286,73.579,73.579,0,0,1,6.283,9.38,1.454,1.454,0,0,1-.619,2A1.556,1.556,0,0,1,770.891,1502.057Zm-13.516-17.518a1.55,1.55,0,0,1-1.1-.457c-2.467-2.5-5.19-5.015-8.094-7.473a1.444,1.444,0,0,1-.144-2.085,1.562,1.562,0,0,1,2.154-.139c2.973,2.516,5.763,5.092,8.293,7.657a1.443,1.443,0,0,1-.05,2.089A1.549,1.549,0,0,1,757.375,1484.539Zm-194.974-12.5c-.479,0-.961,0-1.443-.012a1.478,1.478,0,1,1,.027-2.955h.028c.465.009.927.012,1.388.012a81.559,81.559,0,0,0,9.694-.584,1.516,1.516,0,0,1,1.7,1.284,1.487,1.487,0,0,1-1.327,1.648A84.733,84.733,0,0,1,562.4,1472.034Zm-12.692-.98a1.533,1.533,0,0,1-.242-.018c-.767-.117-1.546-.248-2.316-.387a68.01,68.01,0,0,1-8.936-2.221,1.465,1.465,0,0,1-.961-1.87,1.541,1.541,0,0,1,1.934-.931,64.926,64.926,0,0,0,8.523,2.117c.743.134,1.495.26,2.235.374a1.484,1.484,0,0,1,1.269,1.69A1.514,1.514,0,0,1,549.709,1471.054Zm190.671-.981a1.561,1.561,0,0,1-.918-.3c-2.886-2.107-5.973-4.217-9.176-6.274a1.449,1.449,0,0,1-.428-2.048,1.558,1.558,0,0,1,2.116-.415c3.254,2.09,6.392,4.236,9.327,6.377a1.447,1.447,0,0,1,.3,2.069A1.544,1.544,0,0,1,740.38,1470.073Zm-156.984-.692a1.521,1.521,0,0,1-1.478-1.111,1.475,1.475,0,0,1,1.1-1.8c3.448-.855,6.936-1.912,10.665-3.233a1.543,1.543,0,0,1,1.959.88,1.465,1.465,0,0,1-.91,1.9c-3.825,1.355-7.408,2.44-10.955,3.321A1.613,1.613,0,0,1,583.4,1469.381Zm-86.259-3.055h-.013a44.942,44.942,0,0,1-11.591-1.575,1.471,1.471,0,0,1-1.05-1.826,1.535,1.535,0,0,1,1.888-1.015,41.887,41.887,0,0,0,10.779,1.462,1.478,1.478,0,1,1-.013,2.954Zm11.242-1.159a1.516,1.516,0,0,1-1.491-1.167,1.478,1.478,0,0,1,1.171-1.755,64.587,64.587,0,0,0,10.55-3.192,1.546,1.546,0,0,1,1.991.81,1.462,1.462,0,0,1-.836,1.926,67.873,67.873,0,0,1-11.062,3.345A1.619,1.619,0,0,1,508.379,1465.167Zm20.074-1.269a1.554,1.554,0,0,1-.807-.224,38.616,38.616,0,0,1-8.948-7.36,1.445,1.445,0,0,1,.163-2.083,1.563,1.563,0,0,1,2.153.157,35.581,35.581,0,0,0,8.248,6.779,1.449,1.449,0,0,1,.488,2.035A1.54,1.54,0,0,1,528.453,1463.9Zm76.251-1.926a1.533,1.533,0,0,1-1.4-.881,1.46,1.46,0,0,1,.78-1.949c3.551-1.519,7.023-3.1,10.246-4.591a1.548,1.548,0,0,1,2.035.7,1.456,1.456,0,0,1-.721,1.969c-3.244,1.5-6.74,3.092-10.326,4.627A1.576,1.576,0,0,1,604.7,1461.972Zm-129.044-1.659a1.559,1.559,0,0,1-.822-.234,44.326,44.326,0,0,1-8.906-7.332,1.444,1.444,0,0,1,.1-2.087,1.563,1.563,0,0,1,2.157.1,41.4,41.4,0,0,0,8.3,6.833,1.45,1.45,0,0,1,.463,2.041A1.541,1.541,0,0,1,475.66,1460.313Zm245.87-2.388a1.561,1.561,0,0,1-.777-.207c-3.136-1.8-6.437-3.6-9.812-5.352a1.454,1.454,0,0,1-.624-2,1.555,1.555,0,0,1,2.067-.6c3.414,1.771,6.754,3.593,9.927,5.414a1.452,1.452,0,0,1,.534,2.026A1.539,1.539,0,0,1,721.53,1457.925ZM529.321,1457a1.535,1.535,0,0,1-1.314-.724,1.45,1.45,0,0,1,.533-2.024,82.243,82.243,0,0,0,9.156-6.113,1.562,1.562,0,0,1,2.146.237,1.445,1.445,0,0,1-.245,2.076,85.479,85.479,0,0,1-9.5,6.341A1.562,1.562,0,0,1,529.321,1457Zm95.909-4.344a1.532,1.532,0,0,1-1.385-.854,1.457,1.457,0,0,1,.74-1.963c4.013-1.808,7.331-3.221,10.441-4.449a1.545,1.545,0,0,1,1.99.81,1.461,1.461,0,0,1-.837,1.926c-3.063,1.209-6.338,2.6-10.3,4.392A1.582,1.582,0,0,1,625.23,1452.655Zm76.273-4.962a1.548,1.548,0,0,1-.607-.123,93.552,93.552,0,0,0-10.46-3.7,1.471,1.471,0,0,1-1.031-1.836,1.537,1.537,0,0,1,1.9-1,96.57,96.57,0,0,1,10.81,3.826,1.459,1.459,0,0,1,.793,1.943A1.531,1.531,0,0,1,701.5,1447.693Zm-187.459-.211a1.526,1.526,0,0,1-1.422-.939,35.081,35.081,0,0,1-2.473-11.129,1.527,1.527,0,0,1,3.048-.168,32.251,32.251,0,0,0,2.269,10.22,1.463,1.463,0,0,1-.866,1.914A1.553,1.553,0,0,1,514.044,1447.482Zm132.211-2.964a1.522,1.522,0,0,1-1.458-1.044,1.468,1.468,0,0,1,1.01-1.846,92.234,92.234,0,0,1,11.188-2.62,1.524,1.524,0,0,1,1.765,1.2,1.484,1.484,0,0,1-1.245,1.707,89.167,89.167,0,0,0-10.81,2.532A1.6,1.6,0,0,1,646.255,1444.518Zm-185.87-.118a1.536,1.536,0,0,1-1.315-.725,73.453,73.453,0,0,1-5.077-10.036,1.462,1.462,0,0,1,.844-1.924,1.544,1.544,0,0,1,1.987.818,70.61,70.61,0,0,0,4.873,9.636,1.452,1.452,0,0,1-.536,2.025A1.566,1.566,0,0,1,460.385,1444.4Zm86.621-1.029a1.55,1.55,0,0,1-1.049-.405,1.443,1.443,0,0,1-.06-2.088,62.752,62.752,0,0,0,6.92-8.352,1.558,1.558,0,0,1,2.116-.416,1.449,1.449,0,0,1,.43,2.048,65.787,65.787,0,0,1-7.248,8.751A1.547,1.547,0,0,1,547.006,1443.371Zm132.807-1.793a1.339,1.339,0,0,1-.217-.015,72.237,72.237,0,0,0-11.054-.669,1.478,1.478,0,1,1-.055-2.954,75.265,75.265,0,0,1,11.54.7,1.486,1.486,0,0,1,1.3,1.671A1.512,1.512,0,0,1,679.813,1441.578Zm-167.17-15.661a1.584,1.584,0,0,1-.34-.036,1.478,1.478,0,0,1-1.15-1.769,40.913,40.913,0,0,1,4.116-10.611,1.555,1.555,0,0,1,2.069-.595,1.453,1.453,0,0,1,.616,2,38.015,38.015,0,0,0-3.824,9.859A1.515,1.515,0,0,1,512.643,1425.917Zm46.518-.872a1.59,1.59,0,0,1-.483-.076,1.467,1.467,0,0,1-.966-1.869,22.055,22.055,0,0,0,1.3-7.123,15.2,15.2,0,0,0-.276-2.925,1.481,1.481,0,0,1,1.214-1.728,1.526,1.526,0,0,1,1.786,1.175,18.045,18.045,0,0,1,.33,3.478,24.909,24.909,0,0,1-1.461,8.057A1.525,1.525,0,0,1,559.161,1425.045Zm-107.416-.852a1.523,1.523,0,0,1-1.47-1.08,86.241,86.241,0,0,1-2.411-10.9,1.485,1.485,0,0,1,1.288-1.677,1.521,1.521,0,0,1,1.733,1.245,83.219,83.219,0,0,0,2.331,10.534,1.473,1.473,0,0,1-1.059,1.821A1.584,1.584,0,0,1,451.745,1424.193Zm71.68-17.217a1.551,1.551,0,0,1-1.109-.462,1.444,1.444,0,0,1,.059-2.089,27.717,27.717,0,0,1,10.124-6.047,1.54,1.54,0,0,1,1.934.929,1.467,1.467,0,0,1-.96,1.872,24.681,24.681,0,0,0-9,5.392A1.551,1.551,0,0,1,523.425,1406.976Zm30.936-1.8a1.554,1.554,0,0,1-.934-.308c-.415-.311-.858-.614-1.317-.9a25.1,25.1,0,0,0-8.267-3.387,1.479,1.479,0,0,1-1.183-1.747,1.528,1.528,0,0,1,1.807-1.146,28.232,28.232,0,0,1,9.294,3.794c.534.332,1.05.685,1.535,1.047a1.446,1.446,0,0,1,.273,2.073A1.54,1.54,0,0,1,554.361,1405.173Zm-105.86-2.62a1.5,1.5,0,0,1-1.527-1.469v-.433a71.314,71.314,0,0,1,.8-10.712,1.519,1.519,0,0,1,1.733-1.246,1.485,1.485,0,0,1,1.288,1.677,68.48,68.48,0,0,0-.771,10.281v.414a1.5,1.5,0,0,1-1.517,1.488Zm3.311-21.591a1.582,1.582,0,0,1-.458-.068,1.47,1.47,0,0,1-1-1.853,69.866,69.866,0,0,1,4.32-10.369,1.55,1.55,0,0,1,2.047-.665,1.455,1.455,0,0,1,.687,1.981,66.991,66.991,0,0,0-4.141,9.939A1.522,1.522,0,0,1,451.812,1380.962Zm10.031-19.558a1.555,1.555,0,0,1-.878-.269,1.448,1.448,0,0,1-.369-2.059,78.444,78.444,0,0,1,7.313-8.634,1.564,1.564,0,0,1,2.159-.058,1.445,1.445,0,0,1,.059,2.089,75.423,75.423,0,0,0-7.034,8.3A1.543,1.543,0,0,1,461.843,1361.4Zm15.505-15.892a1.543,1.543,0,0,1-1.191-.552,1.446,1.446,0,0,1,.233-2.078,90.1,90.1,0,0,1,9.432-6.407,1.557,1.557,0,0,1,2.1.492,1.451,1.451,0,0,1-.508,2.031,86.856,86.856,0,0,0-9.11,6.187A1.55,1.55,0,0,1,477.348,1345.512Zm19.29-11.412a1.529,1.529,0,0,1-1.393-.87,1.46,1.46,0,0,1,.765-1.955,95.738,95.738,0,0,1,10.771-3.94,1.536,1.536,0,0,1,1.91.975,1.47,1.47,0,0,1-1.008,1.848,92.592,92.592,0,0,0-10.419,3.811A1.547,1.547,0,0,1,496.638,1334.1Zm55.34-5.6a1.56,1.56,0,0,1-.363-.042,78.232,78.232,0,0,0-10.947-1.768,1.492,1.492,0,0,1-1.379-1.608,1.513,1.513,0,0,1,1.661-1.334,81.422,81.422,0,0,1,11.389,1.839,1.475,1.475,0,0,1,1.121,1.786A1.519,1.519,0,0,1,551.978,1328.5Zm-33.741-.853a1.515,1.515,0,0,1-1.5-1.221,1.484,1.484,0,0,1,1.239-1.713,92.012,92.012,0,0,1,11.45-1.225,1.478,1.478,0,1,1,.136,2.952,88.624,88.624,0,0,0-11.056,1.184A1.622,1.622,0,0,1,518.237,1327.647Z" fill="#220d2d"/>
        </g>
        <g id="Group_158" data-name="Group 158">
          <path id="Path_187" data-name="Path 187" d="M776.183,1517.825h-.026a1.5,1.5,0,0,1-1.5-1.5,20.724,20.724,0,0,0-.879-5.046,1.471,1.471,0,0,1,1.079-1.809,1.532,1.532,0,0,1,1.87,1.043,22.736,22.736,0,0,1,.984,5.862A1.5,1.5,0,0,1,776.183,1517.825Z" fill="#220d2d"/>
        </g>
      </g>
    </g>
    <g id="Group_164" data-name="Group 164">
      <rect id="Rectangle_70" data-name="Rectangle 70" width="42.722" height="297.849" transform="translate(705.172 1223.224)" fill="#220d2d"/>
      <path id="Path_188" data-name="Path 188" d="M741.275,1060.573H579.257v164.5H796.9v-103.82C796.9,1087.74,771.995,1060.573,741.275,1060.573Z" fill="#cf74ec"/>
      <path id="Path_189" data-name="Path 189" d="M579.257,1060.573c-30.72,0-55.624,27.167-55.624,60.678v103.82H634.881v-103.82C634.881,1087.74,609.977,1060.573,579.257,1060.573Z" fill="#220d2d"/>
      <g id="Group_161" data-name="Group 161">
        <rect id="Rectangle_71" data-name="Rectangle 71" width="11.355" height="138.315" transform="translate(645.073 1008.102)" fill="#f7991d"/>
        <path id="Path_190" data-name="Path 190" d="M704.907,1039.237h-52.65V1008.1h52.65l-16.1,15.567Z" fill="#f7991d"/>
      </g>
      <rect id="Rectangle_72" data-name="Rectangle 72" width="82.554" height="27.469" transform="translate(605.526 1197.6)" fill="#e7dbff"/>
      <path id="Path_191" data-name="Path 191" d="M625.337,1154.793l74.448-34.517L687.518,1095.5l-74.448,34.516Z" fill="#e7dbff"/>
      <path id="Path_192" data-name="Path 192" d="M664.023,1106.33l6.1,5.316a3.248,3.248,0,0,1,.338,4.6l-3.481,4.035,6.6-1.521a4.71,4.71,0,0,1,4.776,1.673l5.531,7.154L658.4,1139.761l-13.329-24.411Z" fill="#d8c5fd"/>
      <g id="Group_162" data-name="Group 162">
        <path id="Path_193" data-name="Path 193" d="M619.341,1070.983l46.383,40.375a4.064,4.064,0,0,1,.323,5.875l-72.514,78a4.4,4.4,0,0,1-6.073.308l-46.382-40.374a4.065,4.065,0,0,1-.324-5.876l72.514-78A4.4,4.4,0,0,1,619.341,1070.983Z" fill="#e7dbff"/>
        <path id="Path_194" data-name="Path 194" d="M619.341,1070.983l1.465,1.275-5.561,59.459a13.413,13.413,0,0,1-10.748,11.762l-61.955,12.965-1.464-1.275a4.069,4.069,0,0,1-.322-5.879l72.51-77.995A4.4,4.4,0,0,1,619.341,1070.983Z" fill="#eee6ff"/>
      </g>
      <path id="Path_195" data-name="Path 195" d="M630.485,1218.2,616,1203.68l18.8-6.08h46.5Z" fill="#a4b8f5"/>
      <g id="Group_163" data-name="Group 163">
        <path id="Path_196" data-name="Path 196" d="M678.052,1126.669l21.483,56.677a4.124,4.124,0,0,1-2.554,5.341l-101.8,36.127a4.341,4.341,0,0,1-5.517-2.476l-21.483-56.676a4.124,4.124,0,0,1,2.555-5.341l101.795-36.128A4.34,4.34,0,0,1,678.052,1126.669Z" fill="#e7dbff"/>
        <path id="Path_197" data-name="Path 197" d="M678.052,1126.669l1.187,3.133L645.077,1178.5a13.925,13.925,0,0,1-15.186,5.532l-61.027-16.578-.679-1.789a4.128,4.128,0,0,1,2.558-5.343l101.789-36.125A4.345,4.345,0,0,1,678.052,1126.669Z" fill="#eee5ff"/>
      </g>
      <path id="Path_198" data-name="Path 198" d="M511.342,1091.785c-29.8,7.2-38.551,35.635-24.739,66.366l37.03,66.92H634.881l-47.963-92C573.106,1102.344,539.794,1084.907,511.342,1091.785Z" fill="#cf74ec"/>
    </g>
    <g id="Group_179" data-name="Group 179">
      <path id="Path_214" data-name="Path 214" d="M1329.93,1471.564l-4.791,10.712-15.7,2.415a12.337,12.337,0,0,1-.645-1.348,22.7,22.7,0,0,0-3.305-8.521q-.715-1.086-1.443-2.172l17.009-12.384c2.172,2.858,3.946,5.817,6.2,7.8C1328.368,1469.045,1328.807,1470.751,1329.93,1471.564Z" fill="#e49963"/>
      <path id="Path_215" data-name="Path 215" d="M1341.311,1480.778c-17.4,20.825-2.83,38.148-35.091,40.363-2.659.182-9.835-.068-13.377-.068-4.9-23.83,17.779-7.664,15.932-37.715a.07.07,0,0,1,.015-.015c1.252-1.234,5.634-4.838,13.372-3.575l5.088-11.706C1330.91,1470.882,1340.126,1478.115,1341.311,1480.778Z" fill="#c17719"/>
      <path id="Path_216" data-name="Path 216" d="M1234.993,1498.587l-13.577,3.924-10.227-10.114c.489-.7.019-7.479-1.561-14.7l23.48-4.074A206.3,206.3,0,0,1,1234.993,1498.587Z" fill="#e49963"/>
      <path id="Path_217" data-name="Path 217" d="M1221.515,1500.148c-3.229-8.2-10.129-9.114-10.129-9.114-13.414,17.313-46.355,6.689-45.265,30.107,50.094-.3,70.913,0,70.913,0-.066-5.379-1.056-18.145-2.212-23.142l-2.61.449Z" fill="#c37a18"/>
      <path id="Path_218" data-name="Path 218" d="M1198.65,1150.212c-31.212,1.342-23.655-16.14-18.809-30.263,7.842-22.854-12.513-14.555-17.881-50.889-3.8-25.7,47.887-70.912,73.934-36.015,9.781-7.973,43.6-1.668,42.687,15.64s-10.036,30.039,21.829,41.509,38.143,28.284,34.709,48.084c-8.777,50.6,8.33,31.775,11.411,67.906,3.814,44.726-32.25,54.989-82.976,51.98S1198.65,1150.212,1198.65,1150.212Z" fill="#220d2d"/>
      <path id="Path_219" data-name="Path 219" d="M1208.645,1133.561c-13.641,7.133-54.912,27.221-54.912,27.221s-32.219,1.134-51.32-3.8a34.129,34.129,0,0,0,.49,16.93c16.017,5.527,32.184,10.165,40.114,12.2,10.586,2.71,59.388-12.44,77.037-21.657,6.561-3.426,20.941-14.7,15.525-24.638C1227.326,1124.671,1214.427,1130.538,1208.645,1133.561Z" fill="#f89a1d"/>
      <path id="Path_220" data-name="Path 220" d="M1206.313,1478.5c-4-18.3-13-59.634-29.745-101.036,0,0-5.133-70.945,33.482-131.509l54.92,4.426-39.211,90.2-11.691,32.458c21.823,25.05,16.809,56.107,22.966,101.864C1238.046,1482.384,1207.893,1485.72,1206.313,1478.5Z" fill="#c36cde"/>
      <path id="Path_221" data-name="Path 221" d="M1304.042,1475.968c-13.444-20.074-31.233-45.882-72.382-90.287,0,0-4.949-16.764-5.9-49.526-.716-24.665-4.535-55.157-2.783-86.169l8.551-4.033,42.9-20.237c6.767,11.886,9.221,23.956,9.221,36.725,0,30.085-13.631,64.048-16.635,108.653,26.888,19.092,33.531,48.42,57.045,90.594C1325.576,1464.406,1304.527,1476.693,1304.042,1475.968Z" fill="#cf74ec"/>
      <path id="Path_222" data-name="Path 222" d="M1210.05,1245.954c-4.041-33.217-18.542-52.849-19.779-73.034-1.266-20.675,23.645-41.4,23.645-41.4s13.388-9.087,29.59-9.218c0,0,14.637,1.24,22.539,11.375,11.126,14.269-1.232,37.354-5.7,60.185-3.641,18.607,14.075,31.852,14.075,31.852s-8.456,21-37.648,24.9C1223.694,1252.366,1210.05,1245.954,1210.05,1245.954Z" fill="#f89a1c"/>
      <path id="Path_223" data-name="Path 223" d="M1216.241,1130.752s-9.848,13.4-4.7,15.1c6.27,2.071,28.9-15.175,32.947-23.426,1.176-2.394,1.137-17.016,1.137-17.016l-23.267,5.875C1220.059,1130.312,1216.241,1130.752,1216.241,1130.752Z" fill="#e49963"/>
      <path id="Path_224" data-name="Path 224" d="M1254.292,1081.546c.8,17.537-10.417,32.263-25.065,32.893s-27.175-13.077-27.98-30.614,10.417-32.264,25.065-32.894S1253.487,1064.008,1254.292,1081.546Z" fill="#e49963"/>
      <path id="Path_225" data-name="Path 225" d="M1198.148,1082.334s6.27-1.25,15.505-15.117c7.191,7.773,21.6,13.465,44.183,14.7.236-16.909-16.678-36.945-32.05-36.284S1199.03,1062.947,1198.148,1082.334Z" fill="#220d2d"/>
      <path id="Path_226" data-name="Path 226" d="M1211.181,1088.933a2.5,2.5,0,1,1-2.6-2.3A2.446,2.446,0,0,1,1211.181,1088.933Z"/>
      <path id="Path_227" data-name="Path 227" d="M1230.262,1087.495a2.5,2.5,0,1,1-2.6-2.3A2.448,2.448,0,0,1,1230.262,1087.495Z"/>
      <g id="Group_175" data-name="Group 175">
        <path id="Path_228" data-name="Path 228" d="M1234.324,1084.238a1.159,1.159,0,0,1-.929-.459c-2.155-2.888-6.855-1.748-6.9-1.737a1.15,1.15,0,0,1-1.4-.794,1.105,1.105,0,0,1,.822-1.351c.254-.064,6.271-1.518,9.333,2.584a1.085,1.085,0,0,1-.258,1.547A1.174,1.174,0,0,1,1234.324,1084.238Z" fill="#2e2d57"/>
      </g>
      <g id="Group_176" data-name="Group 176">
        <path id="Path_229" data-name="Path 229" d="M1204.281,1084.93a1.168,1.168,0,0,1-.654-.2,1.087,1.087,0,0,1-.284-1.544c2.3-3.19,6.208-2.976,7.952-2.416a1.1,1.1,0,0,1,.726,1.4,1.153,1.153,0,0,1-1.443.7c-.153-.047-3.47-1.035-5.357,1.58A1.159,1.159,0,0,1,1204.281,1084.93Z" fill="#2e2d57"/>
      </g>
      <path id="Path_230" data-name="Path 230" d="M1216.92,1091.455c-2.2,2.657-4.952,6.2-2.449,7.985a5.391,5.391,0,0,0,4.9.826s-4.079-1.448-3.334-4.458A36.964,36.964,0,0,0,1216.92,1091.455Z" fill="#d68d5d"/>
      <path id="Path_231" data-name="Path 231" d="M1248.932,1082.907c-2.38,3.505-2.151,7.719.512,9.412s6.75.222,9.13-3.283,2.151-7.72-.512-9.412S1251.312,1079.4,1248.932,1082.907Z" fill="#e49963"/>
      <g id="Group_177" data-name="Group 177">
        <path id="Path_232" data-name="Path 232" d="M1215.366,1104.653l13.01-2.289a.746.746,0,0,1,.723,1.213c-1.531,1.742-4.254,4.373-7.057,4.811-2.838.445-5.542-1.252-7.025-2.427A.737.737,0,0,1,1215.366,1104.653Z" fill="#fff"/>
      </g>
      <g id="Group_178" data-name="Group 178">
        <path id="Path_233" data-name="Path 233" d="M1252.943,1089.964a.971.971,0,0,1-.676-.271,4.392,4.392,0,0,1-.742-4.468,5.005,5.005,0,0,1,4.084-3.452.952.952,0,0,1,1.1.763.927.927,0,0,1-.788,1.06,3.138,3.138,0,0,0-2.575,2.2,2.687,2.687,0,0,0,.276,2.6.9.9,0,0,1,0,1.306A.968.968,0,0,1,1252.943,1089.964Z" fill="#d68d5d"/>
      </g>
    </g>
    <g id="Group_202" data-name="Group 202">
      <path id="Path_234" data-name="Path 234" d="M922,1072.909,748.6,1228.1a39.991,39.991,0,0,0-13.464,29.8v140.342l420.556-5.324V1257.9a39.99,39.99,0,0,0-13.464-29.8l-173.4-155.189A35.334,35.334,0,0,0,922,1072.909Z" fill="#cf74ec"/>
      <rect id="Rectangle_73" data-name="Rectangle 73" width="310.736" height="248.749" transform="translate(813.922 1132.548)" fill="#e7dbff"/>
      <rect id="Rectangle_74" data-name="Rectangle 74" width="225.45" height="229.394" transform="translate(813.922 1161.038)" fill="rgba(209,187,252,0.65)"/>
      <g id="Group_180" data-name="Group 180">
        <rect id="Rectangle_75" data-name="Rectangle 75" width="277.077" height="233.758" transform="translate(754.263 1168.965)" fill="#fff"/>
        <path id="Rectangle_76" data-name="Rectangle 76" d="M5.293,0H189.468a5.292,5.292,0,0,1,5.292,5.292V17.9a5.292,5.292,0,0,1-5.292,5.292H5.293A5.293,5.293,0,0,1,0,17.9V5.293A5.293,5.293,0,0,1,5.293,0Z" transform="translate(796.899 1203.678)" fill="rgba(231,219,255,0.7)"/>
        <path id="Path_235" data-name="Path 235" d="M979.976,1272.8H812.047a11.242,11.242,0,0,1-6.757-2.263c-4.849-3.65-8.391-7.986-8.391-13.124v-.587a11.5,11.5,0,0,1,11.682-11.3h171.4a11.5,11.5,0,0,1,11.683,11.3v.587C991.659,1263.652,986.428,1268.714,979.976,1272.8Z" fill="rgba(231,219,255,0.7)"/>
        <path id="Rectangle_77" data-name="Rectangle 77" d="M5.291,0H189.468a5.293,5.293,0,0,1,5.293,5.293V17.9a5.291,5.291,0,0,1-5.291,5.291H5.292A5.292,5.292,0,0,1,0,17.9V5.291A5.291,5.291,0,0,1,5.291,0Z" transform="translate(796.899 1289.892)" fill="rgba(231,219,255,0.7)"/>
        <path id="Rectangle_78" data-name="Rectangle 78" d="M6.374,0H188.386a6.374,6.374,0,0,1,6.374,6.374V21.566a6.373,6.373,0,0,1-6.373,6.373H6.374A6.374,6.374,0,0,1,0,21.565V6.374A6.374,6.374,0,0,1,6.374,0Z" transform="translate(796.899 1333.364)" fill="rgba(231,219,255,0.7)"/>
      </g>
      <g id="Group_181" data-name="Group 181">
        <path id="Path_236" data-name="Path 236" d="M853.528,1328.992c-.167-.181-16.858-18.439-21.543-51.432l2.269-.3c4.59,32.326,20.813,50.075,20.976,50.25Z" transform="translate(-27 21)" fill="url(#linear-gradient)"/>
      </g>
      <path id="Path_238" data-name="Path 238" d="M1155.69,1521.073H735.134V1258.648L945.412,1373.04l210.278-114.392Z" fill="#630b7f"/>
      <g id="Group_184" data-name="Group 184">
        <path id="Path_239" data-name="Path 239" d="M1001.657,1226.6l-51.749,4.377-4.969-55.008,68.262-5.774,3.969,41.042Z" fill="#fdc407"/>
        <path id="Path_240" data-name="Path 240" d="M1001.657,1226.6l15.512-15.363-8.718-2.514Z" fill="#f7991d"/>
        <g id="Group_183" data-name="Group 183">
          <path id="Path_241" data-name="Path 241" d="M972.987,1191.358a29.476,29.476,0,0,0,1.462,6.763,1.665,1.665,0,0,0,2.14.84,1.6,1.6,0,0,0,.868-2.071,25.981,25.981,0,0,1-1.237-5.973c-.112-2.035-3.345-1.575-3.233.441Z" fill="#fff"/>
          <path id="Path_242" data-name="Path 242" d="M981.849,1189.216q.875,2.723,1.595,5.485c.508,1.956,3.746,1.529,3.234-.442q-.82-3.161-1.821-6.274c-.624-1.943-3.626-.693-3.008,1.231Z" fill="#fff"/>
          <path id="Path_243" data-name="Path 243" d="M967.271,1205.052c4.631,6.913,10.511,10.355,18.868,6.954,8.639-3.516,12.3-8.36,10.971-17.381-.3-2.018-3.531-1.573-3.234.441.584,3.945.983,6.969-2.343,10.269-1.7,1.691-4.419,2.868-6.667,3.76-7,2.778-11.284-.405-15.034-6-1.143-1.706-3.7.265-2.561,1.96Z" fill="#fff"/>
          <path id="Path_244" data-name="Path 244" d="M1004.9,1194.17c-4-8.791-15.336-20.07-25.884-14.055a3.523,3.523,0,0,0-1.8.341c-11,4.749-21.989,14.215-17.191,26.826,4.381,11.512,16.689,15.83,28.292,12.006C999.583,1215.574,1010.476,1206.435,1004.9,1194.17Zm-20.264,22.739c-9.357,1.963-18.36-1.772-21.6-10.858-3.83-10.741,6.085-18.54,15.076-22.516.475.2,1.369-.472,1.907-.824,9.461-6.2,21.506,7.766,23.016,15.907C1004.794,1208.126,992.907,1215.172,984.633,1216.909Z" fill="#fff"/>
        </g>
      </g>
      <g id="Group_185" data-name="Group 185">
        <path id="Path_245" data-name="Path 245" d="M993.247,1157.279l-1.43,11.659,2.923.018,1.295-11.339a1.313,1.313,0,0,0-1.219-1.518A1.339,1.339,0,0,0,993.247,1157.279Z" fill="#220d2d"/>
        <path id="Path_246" data-name="Path 246" d="M977.07,1168.925c.694-5.7,1.483-12.014,2.18-17.522a5.839,5.839,0,0,1,3.707-4.711,5.594,5.594,0,0,1,3.391-.088c3.693,1.052,3.366,3.186,3.231,3.634l-.005.112-3.753,32.962a.678.678,0,0,1-.137.446,3.237,3.237,0,0,1-3.236,1.9,1.611,1.611,0,0,1-1.375-.622,1.916,1.916,0,0,1-.286-1.48l3.417-27.89a1.312,1.312,0,0,0-1.217-1.518,1.34,1.34,0,0,0-1.569,1.179L978,1183.111a5.028,5.028,0,0,0,.777,3.647,5.214,5.214,0,0,0,3.431,1.721,6.1,6.1,0,0,0,6.479-4.034l.006-.113,3.884-33.3a5.3,5.3,0,0,0-.543-3.638c-.753-1.5-2.342-2.581-4.65-3.24-3.119-.8-6.217.654-8.272,2.266a7.992,7.992,0,0,0-2.555,5.1c-.478,4.013-1.32,10.853-2.114,17.406Z" fill="#220d2d"/>
      </g>
      <path id="Path_262" data-name="Path 262" d="M922,1353.834,735.134,1521.073H1155.69L968.827,1353.834A35.334,35.334,0,0,0,922,1353.834Z" fill="#cf74ec"/>
      <g id="Group_195" data-name="Group 195">
        <path id="Path_281" data-name="Path 281" d="M796.457,1441.957a14.166,14.166,0,1,1,14.632-14.158A14.417,14.417,0,0,1,796.457,1441.957Zm0-25.165a11.012,11.012,0,1,0,11.374,11.007A11.208,11.208,0,0,0,796.457,1416.792Z" fill="#edf1ff"/>
      </g>
      <g id="Group_196" data-name="Group 196">
        <path id="Path_282" data-name="Path 282" d="M996.06,1498.863c-9.453,0-17.143-7.441-17.143-16.588s7.69-16.588,17.143-16.588,17.142,7.441,17.142,16.588S1005.512,1498.863,996.06,1498.863Zm0-29.482a12.9,12.9,0,1,0,13.325,12.894A13.13,13.13,0,0,0,996.06,1469.381Z" fill="#630b7f"/>
      </g>
      <g id="Group_197" data-name="Group 197">
        <path id="Path_283" data-name="Path 283" d="M784.762,1406.021a7.715,7.715,0,1,1,7.967-7.71A7.852,7.852,0,0,1,784.762,1406.021Zm0-12.583a4.875,4.875,0,1,0,5.035,4.873A4.962,4.962,0,0,0,784.762,1393.438Z" fill="#edf1ff"/>
      </g>
      <g id="Group_198" data-name="Group 198">
        <path id="Path_284" data-name="Path 284" d="M1018.91,1461.1a9.037,9.037,0,1,1,9.335-9.032A9.2,9.2,0,0,1,1018.91,1461.1Zm0-14.74a5.711,5.711,0,1,0,5.9,5.708A5.813,5.813,0,0,0,1018.91,1446.361Z" fill="#630b7f"/>
      </g>
      <g id="Group_199" data-name="Group 199">
        <ellipse id="Ellipse_25" data-name="Ellipse 25" cx="6.501" cy="6.291" rx="6.501" ry="6.291" transform="translate(1020.026 1468.006)" fill="#630b7f"/>
      </g>
      <g id="Group_200" data-name="Group 200">
        <path id="Path_285" data-name="Path 285" d="M1124.86,1476.013a8.484,8.484,0,1,1,8.763-8.479A8.634,8.634,0,0,1,1124.86,1476.013Zm0-14.741a6.265,6.265,0,1,0,6.472,6.262A6.377,6.377,0,0,0,1124.86,1461.272Z" fill="#edf1ff"/>
      </g>
      <g id="Group_201" data-name="Group 201">
        <path id="Path_286" data-name="Path 286" d="M994.018,1107.759a11.775,11.775,0,1,1,12.162-11.769A11.984,11.984,0,0,1,994.018,1107.759Zm0-20.025a8.261,8.261,0,1,0,8.532,8.256A8.407,8.407,0,0,0,994.018,1087.734Z" fill="#fff"/>
      </g>
    </g>
    <path id="Path_287" data-name="Path 287" d="M1143.583,1220.179a28.287,28.287,0,0,1-6.371,1.24c-.009-1.578-.372-5.777-3.872-7.266-3.534-1.5-6.4-3.667-9.279-2.876l.129,5.84-2.923.045s-8.793.2-10.193,3.646c-1.491,3.665,2.8,4.472,2.8,4.472s1.3,9.607,10.66,9.215c7.022-.294,16.674-1.946,26.165-3.969A25.821,25.821,0,0,1,1143.583,1220.179Z" fill="#e49963"/>
    <path id="Path_288" data-name="Path 288" d="M1235.736,1142.207c-7.653,13.05-31.623,51.265-31.623,51.265s-41.634,21.082-60.53,26.707c.8,3.287.682,6.965,5.035,10.785,23.588,1.584,52.465-8.172,60.3-10.523,10.459-3.137,43.519-41.034,53.426-57.908,3.682-6.272,9.69-23.21-.35-28.854C1246.7,1125.08,1238.979,1136.675,1235.736,1142.207Z" fill="#f79a1c"/>
    <g id="Group_203" data-name="Group 203">
      <path id="Path_289" data-name="Path 289" d="M1013.054,971.716c-9.155,0-16.6-7.207-16.6-16.066s7.449-16.067,16.6-16.067,16.605,7.208,16.605,16.067S1022.21,971.716,1013.054,971.716Zm0-28.809a12.749,12.749,0,1,0,13.169,12.743A12.976,12.976,0,0,0,1013.054,942.907Z" fill="#f7f9ff"/>
    </g>
    <g id="Group_204" data-name="Group 204">
      <path id="Path_290" data-name="Path 290" d="M1080.682,946.752,1085.374,964l-95.385,29.356Z" fill="#f8991d"/>
      <path id="Path_291" data-name="Path 291" d="M1088.127,983.868,1078.16,999.2l-83.9-7.238Z" fill="#f7991d"/>
      <path id="Path_292" data-name="Path 292" d="M989.988,993.356l147.208-5.375-41.339-29.1Z" fill="#fdc109"/>
      <path id="Path_293" data-name="Path 293" d="M1080.682,946.752l-90.693,46.6,65.328-66.873Z" fill="#fdc109"/>
    </g>
    <g id="Group_205" data-name="Group 205">
      <path id="Path_294" data-name="Path 294" d="M560.957,1305.72l-4.786,18.565,102.742,30.208Z" fill="#f89a1d"/>
      <path id="Path_295" data-name="Path 295" d="M553.5,1345.634l10.912,16.317,89.9-8.891Z" fill="#f8991d"/>
      <path id="Path_296" data-name="Path 296" d="M658.914,1354.494l-157.99-3.788,43.928-31.773Z" fill="#fdc606"/>
      <path id="Path_297" data-name="Path 297" d="M560.957,1305.72l97.956,48.773-71.038-70.858Z" fill="#fcbb0b"/>
    </g>
    <path id="Path_298" data-name="Path 298" d="M1372.786,1528.976h-815.2a4.019,4.019,0,0,1-4.084-3.951h0a4.02,4.02,0,0,1,4.084-3.952h815.2a4.02,4.02,0,0,1,4.083,3.952h0A4.018,4.018,0,0,1,1372.786,1528.976Z" fill="#220d2d"/>
    <g id="Group_207" data-name="Group 207">
      <path id="Path_308" data-name="Path 308" d="M665.636,1282.387c-9.155,0-16.6-7.207-16.6-16.066s7.449-16.067,16.6-16.067,16.6,7.208,16.6,16.067S674.792,1282.387,665.636,1282.387Zm0-28.809a12.749,12.749,0,1,0,13.169,12.743A12.975,12.975,0,0,0,665.636,1253.578Z" fill="#f7f9ff"/>
    </g>
    <path id="Path_309" data-name="Path 309" d="M690.493,1302.947a9.976,9.976,0,1,1-9.97-9.648A9.813,9.813,0,0,1,690.493,1302.947Z" fill="#f7f9ff"/>
    <path id="Path_310" data-name="Path 310" d="M982.955,926.483a9.976,9.976,0,1,1-9.971-9.648A9.814,9.814,0,0,1,982.955,926.483Z" fill="#f7f9ff"/>
    <path id="Path_311" data-name="Path 311" d="M1337.983,1314.66a9.976,9.976,0,1,1-9.97-9.648A9.813,9.813,0,0,1,1337.983,1314.66Z" fill="#f7f9ff"/>
  </g>
</svg>
