<svg xmlns="http://www.w3.org/2000/svg" viewBox="0 0 339.66 300.66"><defs><style>.cls-1{fill:#630b7f;}</style></defs><title>Asset 11</title><g id="Layer_2" data-name="Layer 2"><g id="Layer_1-2" data-name="Layer 1"><path class="cls-1" d="M328.46,140.92a32,32,0,0,1-8.55,6.54A32.65,32.65,0,0,1,303.42,151a42.36,42.36,0,0,1-11.87-1.73c-2.82,9.84-8.06,16.93-15.63,21.08a36.45,36.45,0,0,1-17.66,4.16,55.51,55.51,0,0,1-17.77-3l.12-.32-.18.15c-7,5.71-16,8.58-26.79,8.58l-1.26,0-35.55,35.85v15.88c1.88,5.26,5.42,12.08,11.89,16.52,6.62,4.54,15.17,5.81,25.43,3.79-.47-6.25,1.07-13.71,6.44-22.3L226,233c-14.49,23.16,4.09,35.68,4.89,36.2l-3.47,5.36a33.11,33.11,0,0,1-12.08-16.37,52.78,52.78,0,0,1-10.18,1.05,33.56,33.56,0,0,1-28.33-13.95v5.58c0,68.73,74.26,55.53,90.43,24.46l.45.07c3.09-5.35,6-12.64,5.57-20.84-.5-10.07-5.87-19.61-16-28.38-4.4,5.69-11.27,10.71-21.95,13.41l-1.57-6.19c29.5-7.46,24.52-35.06,24.29-36.23l6.26-1.24c0,.21,2.38,12.85-3.6,24.79,11.95,10.14,18.32,21.43,18.91,33.59A43.07,43.07,0,0,1,275,275.37c12.94-1.85,28.57-12.61,34.71-30l-.06,0c.06-.18,6.3-17.57-1.66-32.41-5.12-9.55-15.06-16.15-29.52-19.6L280,187.1c16.35,3.9,27.68,11.59,33.7,22.85a41.14,41.14,0,0,1,4.53,15.21c6.63-6.78,15.14-18.95,8.66-30.67C346.43,178.82,340.77,150.9,328.46,140.92Z"/><path class="cls-1" d="M176.83,64.89V79l14.69-15.33A61.9,61.9,0,0,0,176.83,64.89Z"/><path class="cls-1" d="M241.86,150.16,219,173.23a32.75,32.75,0,0,0,17.36-6.81c11.2-9.06,12.22-24,12.23-24.16l6.37.36a44.57,44.57,0,0,1-9.51,23.73c5.37,1.45,17.66,3.8,27.44-1.59,6.17-3.4,10.45-9.45,12.74-18a27.08,27.08,0,0,1-6.78-5.34c-9.24-10.1-8.12-24.27-8.07-24.87l6.36.55c0,.12-.9,12,6.46,20a20.21,20.21,0,0,0,4.7,3.75l2.36,1c.14,0,14.54,6.14,26.26-.1,6.15-3.28,10-7.89,11.83-14.07a28.68,28.68,0,0,0,1-5.91c.25-10.14-3-21.24-13.14-24,5.9-21-8.33-43-26.07-47.09,3.63,12.33,2.95,22.77-2.08,31.09C279.34,97,259.4,99.13,258.56,99.21l-.63-6.35c.17,0,17.65-1.94,25.1-14.32,4.36-7.23,3.38-15.05.62-28.41-.24,0-.12,0,0,0-1.37-14.38-19.88-32.77-40.21-28.6,4.27,10.87,4.87,21.06,1.72,30.4-4.56,13.5-15.66,21.5-21.8,25,4.49,8.89,5.33,18.43,5.43,23.36,6.38-.33,14,1.45,22.55,7.32l-3.61,5.27c-22.56-15.41-35.81,2.64-36.36,3.42l-5.22-3.68a33.28,33.28,0,0,1,16.26-11.23c0-4.84-.86-18.17-8.65-27.56l-24.5,64.05Z"/><path class="cls-1" d="M216.31,67.21A34.66,34.66,0,0,1,220,71.5c5.26-3,15.22-10.09,19.1-21.67,3.19-9.49,1.71-20.25-4.37-32C229.85,9.91,219.56,0,204.7,0,186,0,176.83,15.32,176.83,35.11v23.3a60.62,60.62,0,0,1,20.27-.54L235,18.35Z"/><path class="cls-1" d="M40.59,130.41a31.64,31.64,0,0,1,20.58,15.34,28.43,28.43,0,0,1,3.45,9.59c9-.41,16.66-3.83,20.32-9.33,3.09-4.64,3.15-10.46.18-16.81l-1.79-3.84,4.18-.66c7.89-1.27,17.65-7.14,19.6-13.86,2.92-10.07,1-19.73-6-31a34.35,34.35,0,0,1-6,2.42c-9.83,2.93-20.4,1.15-31.46-5.29-3.2,5.61-11.05,16.82-24.22,20.3a43.44,43.44,0,0,1-11.13,1.44,46.45,46.45,0,0,1-6.36-.45c-13.52,4.7-13.68,25.14-10,35.64C19.58,130.88,30.09,128.24,40.59,130.41Z"/><path class="cls-1" d="M114.29,144.22q-9.66-2.07-20.85-9.28a20.81,20.81,0,0,1-3.19,14.61C87,154.39,81.85,158,75.46,160c11.61,1,25.11,6.29,31.86,23.75a37.84,37.84,0,0,1,20.38-20.62,39.11,39.11,0,0,1,7.36-2.28l-27.39-9.68Z"/><path class="cls-1" d="M162.84,35.11C162.84,15.32,153.68,0,135,0s-30.22,15.75-32.77,23.41C79.63,13.62,57.5,34.9,57.5,50.22,38,48.27,19.63,69.51,21.88,91.73a37.89,37.89,0,0,0,15.9-.65C52.2,87.27,59.38,71.3,59.45,71.14L61,67.7l3.15,2c10.5,6.85,20.29,9,29.11,6.39,13.15-3.9,20.7-17.33,22.51-20.91A47.66,47.66,0,0,1,110.17,41l6.22-1.45c2.41,10.35,6.81,17.13,13.08,20.15,9,4.36,19.37-.45,19.47-.5L151.7,65a34.4,34.4,0,0,1-13.75,3,25.76,25.76,0,0,1-11.2-2.44A24.61,24.61,0,0,1,120,60.71a53.22,53.22,0,0,1-13.58,15.7c5.52,8.72,11.12,21.22,6.78,36.2-2.09,7.2-9.51,13.15-17.34,16.29,8.88,5.92,16.84,9.15,23.8,9.68l43.14-45Z"/><path class="cls-1" d="M130.19,169a31,31,0,0,0-18.78,24l-.55,4-3.77-1.47c-8.57-3.33-19-1.87-24.78,1.29-9.83,5.34-16.86,18.14-10.48,34.28,11.54-2.9,22.81,1.72,31.52,12.77l.09-.07a26.92,26.92,0,0,1,20.07-5.54l34.19-68.7C148.45,165.59,138.81,165.31,130.19,169Z"/><path class="cls-1" d="M107.35,248.81a23.71,23.71,0,0,0-7.7,26.08l-6,2.16c-3.45-9.58-1.25-20.76,5.13-28.68-7.26-9.52-16.52-13.53-25.8-11a23.68,23.68,0,0,0-17.14,21.11l-6.38-.32c.52-10.4,7.13-20.06,16.4-24.81-7.38-18.9.75-35.27,13.41-42.15,5.35-2.9,14-4.82,22.66-3.57C94,164.94,73.58,164.84,61.51,167l-5.35,1,1.76-5.15c1.33-3.86.47-9.06-2.3-13.92a25.13,25.13,0,0,0-16.33-12.25c-10.74-2.22-21.9,1.61-28.71,4.77-11.88,10.4-17,37.65,2.24,53.06-8.94,16.17,10.64,33.19,14.47,35.75.42,30.64,28.51,48.08,45.11,45.1,4.31,8.28,12.73,15.28,22.77,19.81l25.23-50.68A20.45,20.45,0,0,0,107.35,248.81Z"/><path class="cls-1" d="M162.84,250.88v-21L97.2,296C124.76,307.3,162.84,300.09,162.84,250.88Z"/></g></g></svg>