<svg xmlns="http://www.w3.org/2000/svg" xmlns:xlink="http://www.w3.org/1999/xlink" width="142.7" height="43.526" viewBox="0 0 142.7 43.526">
  <defs>
    <linearGradient id="linear-gradient" y1="0.5" x2="1" y2="0.5" gradientUnits="objectBoundingBox">
      <stop offset="0" stop-color="#005ba5"/>
      <stop offset="0.235" stop-color="#0079b4"/>
      <stop offset="0.271" stop-color="#097dab"/>
      <stop offset="0.523" stop-color="#469972"/>
      <stop offset="0.738" stop-color="#72ad48"/>
      <stop offset="0.903" stop-color="#8dba2f"/>
      <stop offset="1" stop-color="#98bf26"/>
    </linearGradient>
    <linearGradient id="linear-gradient-2" y1="0.5" x2="1" y2="0.5" gradientUnits="objectBoundingBox">
      <stop offset="0" stop-color="#bd3488"/>
      <stop offset="1" stop-color="#65297c"/>
    </linearGradient>
    <linearGradient id="linear-gradient-3" y1="0.5" x2="1" y2="0.5" gradientUnits="objectBoundingBox">
      <stop offset="0.017" stop-color="#ffdb00"/>
      <stop offset="0.456" stop-color="#ffbe2a"/>
      <stop offset="0.998" stop-color="#e93a18"/>
    </linearGradient>
  </defs>
  <g id="Group_347" data-name="Group 347" transform="translate(-229.643 -233.781)">
    <g id="Group_344" data-name="Group 344" transform="translate(229.643 233.781)">
      <path id="Path_475" data-name="Path 475" d="M291.873,273.431c-2.3,1.12-5.875,2.346-7.566.792-2.683-2.467-.735-6.163,1.92-9.653,2.977-3.916,2.911-5.432,1.709-6.406-1.138-.922-2.886-.819-6.785,2.082-4.9,3.647-10.079,6.652-14.918,5.645s-5.375-5.578-5.375-7.19a13.163,13.163,0,0,1,1.746-5.241,57.18,57.18,0,0,0,4.234-7.861c.389-1.148,1.086-3.969-1.02-5.77a8.371,8.371,0,0,1,5.589-1.42,4.686,4.686,0,0,1,4.1,6.046c-.739,2.689-4.232,7.929-4.232,9.206s1.594,2.124,3.091,1.209c.693-.423,4.569-3.023,7.324-5.039a11.029,11.029,0,0,1,9.943-1.611,9.219,9.219,0,0,1,6.114,7.66c.683,5.984-4.7,10.835-5.71,12.161C291.472,268.777,289.423,271.432,291.873,273.431Z" transform="translate(-229.795 -233.803)" fill="url(#linear-gradient)"/>
      <path id="Path_476" data-name="Path 476" d="M265.667,239.809c-.167.109-.321.22-.46.326a31.733,31.733,0,0,0-5.441,5.509c-2.352,2.957-20.292,24.861-20.292,24.861s-2.055,2.618-3.634,3.258-3.97,1.09-5.5-1.108c-1.887-2.7.682-5.806.682-5.806L251.7,242.083s5.107-6.182,12.5-3.158a5.326,5.326,0,0,1,1.467.883m-13.445,1.747s5.835-7.46,14.267-7.764c6.483-.235,10.424,3.322,9.062,9.9a4.787,4.787,0,0,0-4.182-5.265,8.4,8.4,0,0,0-5.69,1.4s-1.588-1.524-5.2-1.73C255.939,237.846,252.222,241.556,252.222,241.556Z" transform="translate(-229.643 -233.781)" fill="url(#linear-gradient-2)"/>
      <path id="Path_477" data-name="Path 477" d="M291.984,273.567a14.317,14.317,0,0,0,1.761-1,25.323,25.323,0,0,0,3.844-3.718s2.858-4.161,5.075-1.993c1.972,1.928-1.582,5.363-2.86,6.427-1.458,1.216-4.77,2.487-7.593.471-.085-.061-.152-.124-.228-.187m1.494.874a6.066,6.066,0,0,0,2.6.344,8.171,8.171,0,0,0,3.225-1.129,16.787,16.787,0,0,1-5.049,3.164,9.275,9.275,0,0,1-6.608.078,6.884,6.884,0,0,1-4.1-3.661,3.4,3.4,0,0,0,3.7,1.819,15.538,15.538,0,0,0,4.729-1.495A5.815,5.815,0,0,0,293.477,274.441Z" transform="translate(-229.906 -233.939)" fill="url(#linear-gradient-3)"/>
    </g>
    <g id="Group_345" data-name="Group 345" transform="translate(307.98 249.35)">
      <path id="Path_478" data-name="Path 478" d="M315.1,257.889a.391.391,0,0,1-.266-.1.379.379,0,0,1-.11-.284v-6.728l-2.282,6.681q-.185.425-.527.426c-.221,0-.394-.142-.516-.423l-2.283-6.684v6.728a.365.365,0,0,1-.119.284.382.382,0,0,1-.256.1.387.387,0,0,1-.266-.1.379.379,0,0,1-.11-.284V249.99a.545.545,0,0,1,.152-.4.6.6,0,0,1,.362-.162h.011a.728.728,0,0,1,.387.092.6.6,0,0,1,.256.31l2.393,6.925,2.173-6.247.22-.644a.645.645,0,0,1,.255-.343.652.652,0,0,1,.322-.086.644.644,0,0,1,.076,0,.531.531,0,0,1,.352.151.522.522,0,0,1,.162.4v7.519a.365.365,0,0,1-.119.284A.393.393,0,0,1,315.1,257.889Z" transform="translate(-308.363 -249.426)" fill="#1a1718"/>
      <path id="Path_479" data-name="Path 479" d="M320.579,257.889a2.84,2.84,0,0,1-2.287-.95,3.049,3.049,0,0,1-.713-2.059v-5.064a.384.384,0,0,1,.107-.282.391.391,0,0,1,.268-.1.407.407,0,0,1,.253.083.375.375,0,0,1,.122.3v5.075a2.443,2.443,0,0,0,.522,1.6,2.126,2.126,0,0,0,1.727.73,2.1,2.1,0,0,0,1.715-.73,2.413,2.413,0,0,0,.521-1.6v-5.139a.323.323,0,0,1,.11-.253.479.479,0,0,1,.266-.073.378.378,0,0,1,.255.095.287.287,0,0,1,.121.251v5.108a3.05,3.05,0,0,1-.715,2.059A2.821,2.821,0,0,1,320.579,257.889Z" transform="translate(-308.408 -249.426)" fill="#1a1718"/>
      <path id="Path_480" data-name="Path 480" d="M328.244,257.889a3.375,3.375,0,0,1-2.1-.574,2.514,2.514,0,0,1-.917-1.887.349.349,0,0,1,.1-.307.385.385,0,0,1,.243-.107h.007a.359.359,0,0,1,.261.086.459.459,0,0,1,.143.3,1.83,1.83,0,0,0,.671,1.408,2.571,2.571,0,0,0,1.577.408,2.782,2.782,0,0,0,1.405-.355,1.275,1.275,0,0,0,.744-1.141,1.562,1.562,0,0,0-.388-1.169,4.157,4.157,0,0,0-1.869-.766,5.594,5.594,0,0,1-1.975-.77,1.848,1.848,0,0,1-.728-1.551,1.777,1.777,0,0,1,.739-1.508,3.509,3.509,0,0,1,2.049-.529,2.775,2.775,0,0,1,1.987.663,2.3,2.3,0,0,1,.649,1.317.456.456,0,0,1-.071.358.353.353,0,0,1-.255.156h-.01a.442.442,0,0,1-.281-.083.4.4,0,0,1-.157-.284,1.7,1.7,0,0,0-.594-1.115,2.192,2.192,0,0,0-1.313-.341,2.672,2.672,0,0,0-1.435.331,1.137,1.137,0,0,0-.548,1.013,1.27,1.27,0,0,0,.431,1.025,3.854,3.854,0,0,0,1.648.626,4.827,4.827,0,0,1,2.244.913,2.1,2.1,0,0,1,.639,1.638,1.952,1.952,0,0,1-.873,1.661A3.365,3.365,0,0,1,328.244,257.889Z" transform="translate(-308.445 -249.426)" fill="#1a1718"/>
      <path id="Path_481" data-name="Path 481" d="M333.9,257.7a1.033,1.033,0,0,1-.819-.338,1.1,1.1,0,0,1-.262-.739V250.7a1.123,1.123,0,0,1,.26-.749,1.041,1.041,0,0,1,.821-.339h4.023a.408.408,0,0,1,.278.1.327.327,0,0,1,.1.241.315.315,0,0,1-.1.227.386.386,0,0,1-.28.108h-3.9a.431.431,0,0,0-.348.141.479.479,0,0,0-.1.318v2.467l3.968-.031a.421.421,0,0,1,.29.1.326.326,0,0,1,.1.24.313.313,0,0,1-.1.229.4.4,0,0,1-.29.107h-4l.033,2.73a.454.454,0,0,0,.1.309.428.428,0,0,0,.347.142h4.046a.42.42,0,0,1,.288.1.32.32,0,0,1,.1.24.31.31,0,0,1-.1.227.4.4,0,0,1-.29.107Z" transform="translate(-308.482 -249.427)" fill="#1a1718"/>
      <path id="Path_482" data-name="Path 482" d="M342.911,257.889a2.843,2.843,0,0,1-2.287-.95,3.053,3.053,0,0,1-.711-2.059v-5.064a.384.384,0,0,1,.107-.282.388.388,0,0,1,.269-.1.407.407,0,0,1,.252.083.376.376,0,0,1,.123.3v5.075a2.447,2.447,0,0,0,.52,1.6,2.13,2.13,0,0,0,1.727.73,2.1,2.1,0,0,0,1.716-.73,2.418,2.418,0,0,0,.521-1.6v-5.139a.322.322,0,0,1,.109-.253.484.484,0,0,1,.266-.073.38.38,0,0,1,.256.095.289.289,0,0,1,.12.251v5.108a3.049,3.049,0,0,1-.714,2.059A2.822,2.822,0,0,1,342.911,257.889Z" transform="translate(-308.517 -249.426)" fill="#1a1718"/>
      <path id="Path_483" data-name="Path 483" d="M354.714,257.889a.391.391,0,0,1-.267-.1.379.379,0,0,1-.109-.284v-6.728l-2.282,6.681a.585.585,0,0,1-.529.426c-.219,0-.393-.142-.516-.423l-2.283-6.684v6.728a.365.365,0,0,1-.12.284.376.376,0,0,1-.256.1.4.4,0,0,1-.267-.1.382.382,0,0,1-.108-.284V249.99a.545.545,0,0,1,.152-.4.6.6,0,0,1,.363-.162h.009a.729.729,0,0,1,.388.092.6.6,0,0,1,.256.31l2.393,6.925,2.172-6.247.221-.644a.643.643,0,0,1,.254-.343.66.66,0,0,1,.324-.086.649.649,0,0,1,.075,0,.529.529,0,0,1,.352.151.523.523,0,0,1,.163.4v7.519a.366.366,0,0,1-.12.284A.391.391,0,0,1,354.714,257.889Z" transform="translate(-308.556 -249.426)" fill="#1a1718"/>
    </g>
    <g id="Group_346" data-name="Group 346" transform="translate(307.732 262.477)">
      <path id="Path_484" data-name="Path 484" d="M312.819,277.267a4.843,4.843,0,0,1-3.273-1.005,4.573,4.573,0,0,1-1.426-3.283.716.716,0,0,1,.17-.586.633.633,0,0,1,.427-.214h0a.626.626,0,0,1,.483.171.921.921,0,0,1,.242.567,3.208,3.208,0,0,0,.994,2.354,3.536,3.536,0,0,0,2.349.677,3.805,3.805,0,0,0,2.094-.594,2.1,2.1,0,0,0,1.1-1.881,2.807,2.807,0,0,0-.568-1.941,5.955,5.955,0,0,0-2.808-1.284,8.138,8.138,0,0,1-3.051-1.333,3.4,3.4,0,0,1-1.143-2.718,3.246,3.246,0,0,1,1.16-2.641,5,5,0,0,1,3.186-.928,4.043,4.043,0,0,1,3.1,1.164,4.208,4.208,0,0,1,1.011,2.294.938.938,0,0,1-.122.673.614.614,0,0,1-.448.3h-.021a.729.729,0,0,1-.5-.161.765.765,0,0,1-.268-.538,2.932,2.932,0,0,0-.879-1.852,3,3,0,0,0-1.944-.563,3.638,3.638,0,0,0-2.139.552,1.927,1.927,0,0,0-.8,1.661,2.222,2.222,0,0,0,.632,1.692,5.414,5.414,0,0,0,2.475,1.048,7.048,7.048,0,0,1,3.469,1.586,3.914,3.914,0,0,1,1,2.857,3.536,3.536,0,0,1-1.364,2.9A4.817,4.817,0,0,1,312.819,277.267Z" transform="translate(-308.114 -262.617)" fill="#1a1718"/>
      <path id="Path_485" data-name="Path 485" d="M321.458,276.951a1.59,1.59,0,0,1-1.323-.613,2.1,2.1,0,0,1-.417-1.316v-10.13a2.126,2.126,0,0,1,.416-1.332,1.59,1.59,0,0,1,1.324-.616H327.6a.628.628,0,0,1,.662.661.645.645,0,0,1-.169.445.637.637,0,0,1-.493.215h-5.957a.536.536,0,0,0-.461.206.809.809,0,0,0-.14.5V269.1l5.97-.055a.692.692,0,0,1,.5.19.679.679,0,0,1,.176.47.645.645,0,0,1-.17.446.653.653,0,0,1-.508.214h-6.025l.055,4.583a.781.781,0,0,0,.141.479.542.542,0,0,0,.46.2h6.176a.693.693,0,0,1,.5.19.68.68,0,0,1,.176.47.647.647,0,0,1-.17.447.657.657,0,0,1-.509.214Z" transform="translate(-308.17 -262.619)" fill="#1a1718"/>
      <path id="Path_486" data-name="Path 486" d="M331.191,277.285a.681.681,0,0,1-.463-.232.883.883,0,0,1-.187-.576V263.511c0-.634.335-.829.619-.881a1.051,1.051,0,0,1,.16-.013.846.846,0,0,1,.761.472l.57.928,5.646,10.416V263.268a.654.654,0,0,1,.192-.488.744.744,0,0,1,.47-.153.69.69,0,0,1,.462.164.58.58,0,0,1,.217.477v13.06c0,.489-.186.79-.555.9a.88.88,0,0,1-.271.047.591.591,0,0,1-.55-.359l-.937-1.521-5.443-9.953v11.039a.858.858,0,0,1-.2.594.617.617,0,0,1-.474.214Z" transform="translate(-308.223 -262.617)" fill="#1a1718"/>
      <path id="Path_487" data-name="Path 487" d="M346.7,277.267a4.841,4.841,0,0,1-3.273-1.005A4.581,4.581,0,0,1,342,272.979a.721.721,0,0,1,.169-.586.64.64,0,0,1,.429-.214h0a.621.621,0,0,1,.481.171.9.9,0,0,1,.242.567,3.218,3.218,0,0,0,1,2.354,3.537,3.537,0,0,0,2.349.677,3.8,3.8,0,0,0,2.094-.594,2.1,2.1,0,0,0,1.1-1.881,2.8,2.8,0,0,0-.57-1.941,5.945,5.945,0,0,0-2.807-1.284,8.138,8.138,0,0,1-3.051-1.333,3.388,3.388,0,0,1-1.143-2.718,3.248,3.248,0,0,1,1.159-2.641,5,5,0,0,1,3.186-.928,4.042,4.042,0,0,1,3.1,1.164,4.2,4.2,0,0,1,1.012,2.294.938.938,0,0,1-.123.673.609.609,0,0,1-.448.3h-.021a.725.725,0,0,1-.495-.161.768.768,0,0,1-.269-.538,2.927,2.927,0,0,0-.879-1.852,2.994,2.994,0,0,0-1.944-.563,3.636,3.636,0,0,0-2.139.552,1.925,1.925,0,0,0-.8,1.661,2.216,2.216,0,0,0,.631,1.692,5.409,5.409,0,0,0,2.474,1.048,7.035,7.035,0,0,1,3.469,1.586,3.912,3.912,0,0,1,1,2.857,3.536,3.536,0,0,1-1.365,2.9A4.816,4.816,0,0,1,346.7,277.267Z" transform="translate(-308.278 -262.617)" fill="#1a1718"/>
      <path id="Path_488" data-name="Path 488" d="M355.343,276.951a1.59,1.59,0,0,1-1.323-.613,2.1,2.1,0,0,1-.417-1.316v-10.13a2.132,2.132,0,0,1,.415-1.332,1.594,1.594,0,0,1,1.325-.616h6.142a.665.665,0,0,1,.486.191.676.676,0,0,1,.175.47.651.651,0,0,1-.169.445.632.632,0,0,1-.492.215h-5.957a.538.538,0,0,0-.46.206.8.8,0,0,0-.14.5V269.1l5.968-.055a.693.693,0,0,1,.5.19.679.679,0,0,1,.176.47.641.641,0,0,1-.171.446.65.65,0,0,1-.508.214h-6.025l.057,4.583a.78.78,0,0,0,.14.479.542.542,0,0,0,.46.2H361.7a.693.693,0,0,1,.5.19.678.678,0,0,1,.175.47.642.642,0,0,1-.17.447.655.655,0,0,1-.508.214Z" transform="translate(-308.335 -262.619)" fill="#1a1718"/>
      <path id="Path_489" data-name="Path 489" d="M368.483,277.267a4.842,4.842,0,0,1-3.272-1.005,4.569,4.569,0,0,1-1.426-3.283.714.714,0,0,1,.168-.586.64.64,0,0,1,.428-.214h0a.624.624,0,0,1,.483.171.924.924,0,0,1,.242.567,3.206,3.206,0,0,0,.994,2.354,3.534,3.534,0,0,0,2.35.677,3.805,3.805,0,0,0,2.094-.594,2.1,2.1,0,0,0,1.1-1.881,2.8,2.8,0,0,0-.57-1.941,5.955,5.955,0,0,0-2.808-1.284,8.14,8.14,0,0,1-3.05-1.333,3.389,3.389,0,0,1-1.144-2.718,3.247,3.247,0,0,1,1.16-2.641,5.007,5.007,0,0,1,3.186-.928,4.042,4.042,0,0,1,3.1,1.164,4.21,4.21,0,0,1,1.012,2.294.933.933,0,0,1-.124.673.609.609,0,0,1-.448.3h-.021a.722.722,0,0,1-.494-.161.767.767,0,0,1-.269-.538,2.927,2.927,0,0,0-.878-1.852,3,3,0,0,0-1.945-.563,3.641,3.641,0,0,0-2.139.552,1.925,1.925,0,0,0-.8,1.661,2.221,2.221,0,0,0,.629,1.692,5.409,5.409,0,0,0,2.476,1.048,7.035,7.035,0,0,1,3.467,1.586,3.905,3.905,0,0,1,1,2.857,3.535,3.535,0,0,1-1.364,2.9A4.816,4.816,0,0,1,368.483,277.267Z" transform="translate(-308.384 -262.617)" fill="#1a1718"/>
    </g>
    <path id="Path_490" data-name="Path 490" d="M370.966,247.346a23.482,23.482,0,0,0-3.307,4.785c-.168.289-.38.664-.621,1.085-.547.729-1.267,1.243-1.944.99.386-.615,1.16-2.04.72-2.778-.264-.458-1.372-.441-2.2-.283-2.779.528-4.1,5.065-1.126,4.89a3.441,3.441,0,0,0,2.41-1.6,1.61,1.61,0,0,0,1.721-.495c-1.321,2.266-3.271,5.365-4.818,6.018-1.407.58-2.674-.229-1.864-1.829,0,0,.1-.181-.087-.237-.139-.042-.23.149-.23.149-.88,1.917.633,2.989,2.34,2.62,1.917-.4,4.133-3.764,5.611-6.243.966-.527,2.457.054,3.3-1.37,0,0,.064-.092-.012-.119a.1.1,0,0,0-.105.03c-.634,1.108-1.865.809-2.885.967l.9-1.565a12.111,12.111,0,0,0,4.027-4.151C373.481,246.5,372.057,246.343,370.966,247.346Zm-8.423,8.336c-1.231-.228-.563-3.042,1.09-3.869a2.373,2.373,0,0,1,.968-.282c-.721.845-1,1.987.052,2.762C364.3,254.768,363.265,255.823,362.543,255.682Zm2.3-1.6c-1.654-1.073.369-3.218.756-2.409C365.867,252.131,365.357,253.4,364.847,254.082Zm7.755-5.945a14.506,14.506,0,0,1-3.623,3.87,25.575,25.575,0,0,1,2.937-4.309C372.9,246.784,372.865,247.557,372.6,248.137Z" transform="translate(-0.631 -0.063)" fill="#1a1718"/>
    <rect id="Rectangle_95" data-name="Rectangle 95" width="2.162" height="3.911" transform="translate(305.686 258.339)" fill="none"/>
  </g>
</svg>
