<svg xmlns="http://www.w3.org/2000/svg" width="384.8" height="473.136" viewBox="0 0 384.8 473.136">
  <g id="Group_330" data-name="Group 330" transform="translate(-546.013 -245.536)">
    <path id="Path_436" data-name="Path 436" d="M801.768,464.129,669.191,547.775c-7.637,4.805-17.193,1.547-21.361-7.284L561.042,356.13c-4.151-8.842-1.336-19.9,6.291-24.729l132.577-83.646c7.637-4.806,17.192-1.548,21.361,7.282L808.059,439.4C812.21,448.241,809.4,459.3,801.768,464.129ZM568.295,333.443c-6.654,4.209-9.11,13.86-5.489,21.574l86.788,184.361c3.636,7.7,11.973,10.546,18.635,6.354l132.577-83.645c6.654-4.21,9.109-13.861,5.488-21.574L719.507,256.151c-3.636-7.7-11.973-10.546-18.635-6.353Z" transform="translate(0.062 0)" fill="#220d2d"/>
    <path id="Path_437" data-name="Path 437" d="M671.6,283.832l-61.982,39.106c-6.092,3.832-13.713,1.234-17.038-5.809l-1.287-2.734c-3.31-7.052-1.066-15.874,5.017-19.723L658.3,255.565c6.091-3.834,13.712-1.234,17.037,5.809l1.287,2.734C679.931,271.16,677.687,279.983,671.6,283.832Z" transform="translate(0.205 1.347)" fill="#d5bfff"/>
    <path id="Path_438" data-name="Path 438" d="M748.5,351.861,626.9,428.578c-3.462,2.195-7.806.724-9.7-3.285s-.625-9.038,2.839-11.231l.023-.015,121.6-76.717c3.467-2.183,7.807-.7,9.693,3.316S751.96,349.675,748.5,351.861Z" transform="translate(0.33 14.81)" fill="#d5bfff" opacity="0.4"/>
    <path id="Path_439" data-name="Path 439" d="M762.967,378.409,641.372,455.125c-3.462,2.194-7.805.724-9.7-3.286s-.626-9.036,2.837-11.231l.024-.014,121.595-76.717c3.469-2.18,7.807-.69,9.69,3.326S766.42,376.221,762.967,378.409Z" transform="translate(0.398 19.141)" fill="#d5bfff" opacity="0.4"/>
    <path id="Path_440" data-name="Path 440" d="M701.323,342.975l-56.482,35.636c-3.464,2.19-7.807.714-9.7-3.3s-.617-9.038,2.847-11.228l.011-.007,56.482-35.636c3.462-2.194,7.805-.723,9.7,3.286s.625,9.036-2.837,11.231Z" transform="translate(0.415 13.359)" fill="#d5bfff" opacity="0.4"/>
    <path id="Path_441" data-name="Path 441" d="M774.873,466.735c-5.336-3.074-7.509-10.575-4.854-16.754a13,13,0,0,1,.995-1.878l-8.07-91.352h17.441l6.414,89.2c4.567,4.493,5.122,12.421,1.241,17.708-3.248,4.424-8.692,5.695-13.166,3.075Z" transform="translate(1.019 18.142)" fill="#f9b485"/>
    <ellipse id="Ellipse_29" data-name="Ellipse 29" cx="24.676" cy="28.568" rx="24.676" ry="28.568" transform="translate(735.202 267.342)" fill="#f9b485"/>
    <path id="Path_442" data-name="Path 442" d="M753.479,415.749l-36.829-9.311a5.089,5.089,0,0,1-3.551-4.845c-.425-9.513-.73-34.126,5.6-57.1,5.05-18.193,21.883-28.2,37.6-22.357.271.1.54.206.808.315h0c15.581,6.338,23.773,26.1,18.3,44.135a37.916,37.916,0,0,1-1.318,3.658c-8.167,19.415-13.31,33.475-15.288,41.791C758.16,414.712,755.823,416.344,753.479,415.749Z" transform="translate(0.784 12.223)" fill="#f79a1c"/>
    <path id="Path_443" data-name="Path 443" d="M718.842,643.433H706.524l-5.859-55h18.179Z" transform="translate(0.727 55.936)" fill="#f9b485"/>
    <path id="Path_444" data-name="Path 444" d="M697.809,632.215h23.755v17.315H682.853c0-9.563,6.7-17.315,14.956-17.315Z" transform="translate(0.643 63.079)" fill="#220d2d"/>
    <path id="Path_445" data-name="Path 445" d="M841.529,626.59l-10.794,6.87L802.71,588.531l15.931-10.141Z" transform="translate(1.206 54.299)" fill="#f9b485"/>
    <path id="Path_446" data-name="Path 446" d="M821.28,628.743,842.1,615.494h0l7.206,15.173h0l-33.923,21.591h0c-3.98-8.379-1.338-18.908,5.9-23.515Z" transform="translate(1.257 60.351)" fill="#1f0b23"/>
    <path id="Path_447" data-name="Path 447" d="M719.109,645.761l-18.962-1.69a4.89,4.89,0,0,1-4.154-4.711c-2.7-32.632-14.558-198,17.509-248.91l.089-.142.144-.061c.288-.122,28.885-11.928,45.294,9.708a5.876,5.876,0,0,1,.87,5.091l-.626,2.174a4.586,4.586,0,0,0,.5,3.691c4.553,7.126,19.879,34.574,25.9,88.547a4.525,4.525,0,0,0,.227,1l44.472,126.477a5.547,5.547,0,0,1-2.482,6.821l-.095.043L813.8,639.972a4.283,4.283,0,0,1-5.569-2.366l-64.2-134.843a2.344,2.344,0,0,0-3.412-1.142,2.941,2.941,0,0,0-1.278,2.172L723.938,641.215a4.805,4.805,0,0,1-4.479,4.56C719.342,645.776,719.226,645.771,719.109,645.761Z" transform="translate(0.684 23.065)" fill="#630b7f"/>
    <path id="Path_448" data-name="Path 448" d="M663.491,318.7a13.876,13.876,0,0,1,.24,1.908l43.16,28.825,10.49-6.992,11.184,16.949-17.532,14.467a7.18,7.18,0,0,1-9.643-.272l-44.505-40.647c-5.463,2.341-11.53-.887-13.551-7.211s.766-13.348,6.229-15.688,11.53.887,13.552,7.211a13.506,13.506,0,0,1,.377,1.45Z" transform="translate(0.454 10.397)" fill="#f9b485"/>
    <path id="Path_449" data-name="Path 449" d="M707.182,344.037a5.235,5.235,0,0,1,2.221-3.518L729.209,327.7c5.49-4.906,13.375-3.731,17.611,2.624,4.222,6.331,3.233,15.419-2.212,20.341l-15.792,18.985a4.1,4.1,0,0,1-6.392.138,5.222,5.222,0,0,1-.444-.572l-13.948-20.929A5.873,5.873,0,0,1,707.182,344.037Z" transform="translate(0.757 12.909)" fill="#f79a1c"/>
    <path id="Path_450" data-name="Path 450" d="M758.22,381.935a5.552,5.552,0,0,1-1.675-3.9l-.711-26.257c-1.234-7.9,3.3-15.463,10.12-16.892,6.8-1.424,13.314,3.779,14.579,11.642l7.285,24.969c.8,2.739-.471,5.71-2.837,6.635a4.071,4.071,0,0,1-.643.191l-22.471,4.7A4.074,4.074,0,0,1,758.22,381.935Z" transform="translate(0.985 14.537)" fill="#ffbe00"/>
    <path id="Path_451" data-name="Path 451" d="M755.111,288.139c-6.342,5.026-14.67,10.191-21.147,4.84-4.254-3.514-5.594-10.02-3.869-15.731,3.1-10.268,11.623-14.789,19.772-18.254,10.595-4.5,22.13-8.09,33.067-4.863s20.6,15.485,18.627,28.349c-1.587,10.345-10.017,18.953-8.82,29.369,1.2,10.482,11.387,16,20.377,17.873s19.049,2.475,25.51,9.951c8.242,9.537,6.184,26.582-1.571,36.65s-19.458,14.632-30.8,17.735c-15.025,4.11-31.276,6.27-45.545-.551s-25.374-25.188-21.241-42.408c1.746-7.274,5.86-13.421,9.835-19.406s8-12.243,9.516-19.586c1.264-6.119.329-13.224-3.177-17.813a5.8,5.8,0,0,1-.6-6.033Z" transform="translate(0.861 1.2)" fill="#220d2d"/>
    <path id="Path_452" data-name="Path 452" d="M929.808,653.376H547.018c-.555,0-1.005-1.695-1.005-3.786s.45-3.787,1.005-3.787h382.79c.555,0,1,1.7,1,3.787S930.363,653.376,929.808,653.376Z" transform="translate(0 65.296)" fill="#220d2d"/>
  </g>
</svg>
