<svg id="Group_343" data-name="Group 343" xmlns="http://www.w3.org/2000/svg" width="131.408" height="75.916" viewBox="0 0 131.408 75.916">
  <g id="Group_339" data-name="Group 339" transform="translate(0 48.993)">
    <path id="Path_455" data-name="Path 455" d="M4.793,51.879C1.247,51.879,0,50.025,0,46.063,0,42.02,1.613,40.12,5.336,40.12a6.943,6.943,0,0,1,2.477.542.153.153,0,0,0,.16-.111l.1-.3c.017-.048.065-.127.128-.127H9.89a.118.118,0,0,1,.128.127,27.628,27.628,0,0,0,0,3.85.118.118,0,0,1-.128.128H7.685a.118.118,0,0,1-.128-.128c0-1.837-.4-3.02-1.981-3.02-1.982,0-2.477,2.158-2.477,4.905s.112,4.937,2.4,4.937c1.613,0,2.06-1.454,2.06-2.8A.118.118,0,0,1,7.685,48H9.858a.117.117,0,0,1,.127.128C9.985,50.105,9.681,51.879,4.793,51.879Z" transform="translate(0 -40.12)" fill="#181c2b"/>
    <path id="Path_456" data-name="Path 456" d="M21.987,46.358c0,3.439-1.227,5.258-4.893,5.258s-4.78-1.622-4.78-5.161c0-3.51,1.509-5.216,4.893-5.216C20.9,41.24,21.987,42.931,21.987,46.358Zm-6.937.056c0,3.51.606,4.244,2.074,4.244,1.523,0,2.128-.734,2.128-4.23s-.62-4.229-2.087-4.229C15.655,42.2,15.049,42.931,15.049,46.414Z" transform="translate(2.723 -39.872)" fill="#181c2b"/>
    <path id="Path_457" data-name="Path 457" d="M26.019,50.524a.224.224,0,0,0,.254.254h.888a.1.1,0,0,1,.114.114v.479a.1.1,0,0,1-.114.112h-3.58a.1.1,0,0,1-.114-.112v-.479a.1.1,0,0,1,.114-.114h.888a.224.224,0,0,0,.254-.254V42.291a.225.225,0,0,0-.254-.254h-.888a.1.1,0,0,1-.114-.112v-.48a.1.1,0,0,1,.114-.112H27.2a.2.2,0,0,1,.155.112c.55.917,1.213,1.975,1.9,2.989l2.818,4.074V42.291a.224.224,0,0,0-.253-.254h-.889a.1.1,0,0,1-.114-.112v-.48a.1.1,0,0,1,.114-.112h3.582a.1.1,0,0,1,.112.112v.48a.1.1,0,0,1-.112.112h-.889a.225.225,0,0,0-.254.254V51.37a.1.1,0,0,1-.112.112h-2.34c-.071,0-.084-.028-.127-.084-.607-1.015-1.227-2.044-1.947-3.059l-2.833-4.075Z" transform="translate(5.19 -39.852)" fill="#181c2b"/>
    <path id="Path_458" data-name="Path 458" d="M43.627,44.187H41.582a.1.1,0,0,1-.112-.114c.112-1.071-.226-1.96-1.537-1.96A1.334,1.334,0,0,0,38.48,43.34c0,.832.3,1.185,1.762,1.677,2.623.861,3.709,1.664,3.709,3.469,0,2.03-1.071,3.13-4.3,3.13-2.691,0-4.059-.833-3.764-2.989.015-.071.056-.112.112-.112h2.044c.1,0,.128.042.114.112-.17,1.353.254,2.115,1.649,2.115a1.544,1.544,0,0,0,1.707-1.536c0-.9-.41-1.213-2.186-1.82-2.326-.789-3.257-1.34-3.257-3.27,0-1.988,1.551-2.876,3.991-2.876,2.65,0,3.947.69,3.678,2.833C43.725,44.144,43.682,44.187,43.627,44.187Z" transform="translate(7.928 -39.872)" fill="#181c2b"/>
    <path id="Path_459" data-name="Path 459" d="M55.439,41.286a.1.1,0,0,1,.114.112l.056,2.989a.1.1,0,0,1-.114.112H53.761a.1.1,0,0,1-.112-.112V43.316c0-.733-.282-1.015-1.016-1.015h-.774v8.233a.224.224,0,0,0,.253.254H53.55a.105.105,0,0,1,.114.114v.479a.1.1,0,0,1-.114.112H47.6a.1.1,0,0,1-.112-.112V50.9a.1.1,0,0,1,.112-.114h1.439a.224.224,0,0,0,.253-.254V42.3h-.775c-.733,0-1.014.282-1.014,1.015v1.072a.1.1,0,0,1-.114.112H45.655a.1.1,0,0,1-.112-.112L45.6,41.4a.1.1,0,0,1,.112-.112c1.381.042,1.818.056,2.96.056h3.666C53.466,41.342,54.17,41.328,55.439,41.286Z" transform="translate(10.072 -39.862)" fill="#181c2b"/>
    <path id="Path_460" data-name="Path 460" d="M57.8,50.524c-.056.17.015.254.2.254h.846a.1.1,0,0,1,.112.114v.479a.1.1,0,0,1-.112.112H55.632a.1.1,0,0,1-.114-.112v-.479a.1.1,0,0,1,.114-.114h.52c.184,0,.241-.084.311-.254l2.312-6.047a25.635,25.635,0,0,0,.987-3.046.108.108,0,0,1,.112-.1h2.214a.107.107,0,0,1,.112.1,17.559,17.559,0,0,0,.564,1.833l2.707,7.26c.071.17.127.254.31.254h.508a.1.1,0,0,1,.112.114v.479a.1.1,0,0,1-.112.112H61.75a.1.1,0,0,1-.112-.112v-.479a.1.1,0,0,1,.112-.114h.775c.211,0,.282-.084.225-.254L61.9,48.24H58.577ZM60.171,43.6l-1.254,3.679h2.622Z" transform="translate(12.278 -39.852)" fill="#181c2b"/>
    <path id="Path_461" data-name="Path 461" d="M69.7,50.524a.225.225,0,0,0,.254.254h.888a.1.1,0,0,1,.112.114v.479a.1.1,0,0,1-.112.112H67.256a.1.1,0,0,1-.112-.112v-.479a.1.1,0,0,1,.112-.114h.889a.225.225,0,0,0,.254-.254V42.291a.225.225,0,0,0-.254-.254h-.889a.1.1,0,0,1-.112-.112v-.48a.1.1,0,0,1,.112-.112h3.624a.2.2,0,0,1,.155.112c.55.917,1.211,1.975,1.9,2.989l2.82,4.074V42.291a.225.225,0,0,0-.254-.254h-.888a.1.1,0,0,1-.112-.112v-.48a.1.1,0,0,1,.112-.112H78.2a.1.1,0,0,1,.114.112v.48a.1.1,0,0,1-.114.112h-.888a.225.225,0,0,0-.254.254V51.37a.1.1,0,0,1-.112.112H74.6c-.07,0-.084-.028-.127-.084-.606-1.015-1.226-2.044-1.944-3.059L69.7,44.264Z" transform="translate(14.849 -39.852)" fill="#181c2b"/>
    <path id="Path_462" data-name="Path 462" d="M88.9,41.286a.1.1,0,0,1,.112.112l.057,2.989a.1.1,0,0,1-.114.112H87.221a.1.1,0,0,1-.112-.112V43.316c0-.733-.282-1.015-1.015-1.015h-.777v8.233a.225.225,0,0,0,.255.254h1.437a.1.1,0,0,1,.112.114v.479a.1.1,0,0,1-.112.112H81.06a.1.1,0,0,1-.112-.112V50.9a.1.1,0,0,1,.112-.114H82.5a.225.225,0,0,0,.255-.254V42.3h-.777c-.733,0-1.015.282-1.015,1.015v1.072a.1.1,0,0,1-.112.112H79.115A.1.1,0,0,1,79,44.388l.056-2.989a.1.1,0,0,1,.114-.112c1.382.042,1.818.056,2.961.056H85.8C86.925,41.342,87.63,41.328,88.9,41.286Z" transform="translate(17.472 -39.862)" fill="#181c2b"/>
    <path id="Path_463" data-name="Path 463" d="M93.952,50.524a.224.224,0,0,0,.254.254h.888a.1.1,0,0,1,.114.114v.479a.1.1,0,0,1-.114.112H90.245a.1.1,0,0,1-.114-.112v-.479a.1.1,0,0,1,.114-.114h.888a.225.225,0,0,0,.254-.254V42.291a.225.225,0,0,0-.254-.254h-.888a.1.1,0,0,1-.114-.112v-.48a.1.1,0,0,1,.114-.112h4.849a.1.1,0,0,1,.114.112v.48a.1.1,0,0,1-.114.112h-.888a.225.225,0,0,0-.254.254Z" transform="translate(19.933 -39.852)" fill="#181c2b"/>
    <path id="Path_464" data-name="Path 464" d="M100.139,50.642a.254.254,0,0,0,.288.287h1.006a.118.118,0,0,1,.128.128V51.6a.118.118,0,0,1-.128.128H97.375a.118.118,0,0,1-.128-.128v-.542a.118.118,0,0,1,.128-.128h1.006a.253.253,0,0,0,.287-.287V41.311a.253.253,0,0,0-.287-.287H97.375a.118.118,0,0,1-.128-.128v-.543a.118.118,0,0,1,.128-.128h4.106a.223.223,0,0,1,.176.128c.623,1.038,1.374,2.236,2.157,3.387l3.2,4.617V41.311a.253.253,0,0,0-.287-.287h-1.007a.118.118,0,0,1-.127-.128v-.543a.117.117,0,0,1,.127-.128h4.058a.118.118,0,0,1,.128.128V40.9a.118.118,0,0,1-.128.128h-1.006a.254.254,0,0,0-.288.287V51.6a.117.117,0,0,1-.127.128H105.7c-.079,0-.1-.032-.144-.1-.686-1.15-1.39-2.317-2.2-3.467l-3.212-4.617Z" transform="translate(21.507 -40.097)" fill="#181c2b"/>
  </g>
  <g id="Group_341" data-name="Group 341" transform="translate(37.523 65.806)">
    <g id="Group_340" data-name="Group 340">
      <path id="Path_465" data-name="Path 465" d="M33.086,62.89c-.026.155.038.233.194.233h.764a.085.085,0,0,1,.078.1l-.078.441a.1.1,0,0,1-.1.1H30.817c-.065,0-.09-.039-.09-.1l.078-.441a.113.113,0,0,1,.116-.1H31.7a.245.245,0,0,0,.259-.233l1.258-7.569c.026-.155-.039-.233-.182-.233h-.778a.083.083,0,0,1-.077-.1l.077-.441a.126.126,0,0,1,.129-.1h2.878c.051,0,.09.038.116.1.363.843.8,1.815,1.282,2.748l2.022,3.875.973-5.844c.024-.155-.039-.233-.182-.233h-.764a.086.086,0,0,1-.09-.1l.077-.441a.113.113,0,0,1,.116-.1h3.125c.063,0,.09.038.077.1l-.077.441a.115.115,0,0,1-.117.1h-.778a.246.246,0,0,0-.259.233L39.4,63.668c-.013.065-.051.1-.1.1H37.518a.118.118,0,0,1-.1-.078c-.4-.933-.856-1.944-1.362-2.877l-2-3.8Z" transform="translate(-30.727 -53.766)" fill="#181c2b"/>
      <path id="Path_466" data-name="Path 466" d="M46.629,62.068c-.065.4,0,.635.4.635a1.992,1.992,0,0,0,.791-.233c.065-.026.1-.013.116.051l.117.311c.039.09-.012.1-.063.143a3.4,3.4,0,0,1-1.79.466c-1.205,0-1.542-.635-1.606-1.193A3.056,3.056,0,0,1,42.3,63.442c-1.205,0-1.905-.972-1.905-2.359,0-2.385,1.192-4.678,4.355-4.678a12.133,12.133,0,0,1,2.669.311c.065.012.092.065.078.142Zm-3.331.116c.6,0,1.375-.635,1.581-2.021.065-.4.077-.791.116-.933L45.32,57.3a1.289,1.289,0,0,0-.609-.1c-1.205,0-2.126,1.62-2.126,3.992C42.585,61.847,42.741,62.184,43.3,62.184Z" transform="translate(-28.589 -53.332)" fill="#181c2b"/>
      <path id="Path_467" data-name="Path 467" d="M54.25,62.049c-.065.4,0,.635.4.635a1.941,1.941,0,0,0,.79-.233c.065-.039.1-.013.116.051l.117.311a.122.122,0,0,1-.065.143,3.4,3.4,0,0,1-1.789.466c-.984,0-1.517-.429-1.607-1.193a3.207,3.207,0,0,1-2.358,1.193c-1.608,0-1.763-1.011-1.595-2.113l.648-3.941c.026-.155-.039-.233-.182-.233h-.686c-.065,0-.092-.038-.092-.1l.078-.441a.114.114,0,0,1,.117-.1h2.9c.065,0,.1.026.09.09l-.582,3.539c-.208,1.3-.39,2.074.285,2.074.83,0,1.491-.972,1.66-2.036.064-.4.078-.79.116-.933l.311-1.893c.039-.167-.039-.194-.2-.194h-.44a.086.086,0,0,1-.092-.1l.078-.441a.115.115,0,0,1,.117-.1h2.669c.077,0,.1.039.09.1Z" transform="translate(-26.918 -53.313)" fill="#181c2b"/>
      <path id="Path_468" data-name="Path 468" d="M58.263,54.929H59.4c.064,0,.077.039.064.1l-.259,1.594c-.039.169.027.208.2.208h1.671c.066,0,.092.039.078.1l-.078.441a.112.112,0,0,1-.116.1H59.067l-.727,4.342c-.142.79.051,1.114.674,1.114a2.457,2.457,0,0,0,1.037-.245c.053-.026.078-.013.092.026l.116.3a.107.107,0,0,1-.013.155,3.362,3.362,0,0,1-2.242.6c-1.619,0-1.931-.843-1.685-2.359l.648-3.927h-1.01c-.053,0-.078-.038-.078-.1l.065-.441a.127.127,0,0,1,.129-.1c1.037,0,1.7-.182,2.074-1.8A.114.114,0,0,1,58.263,54.929Z" transform="translate(-25.164 -53.658)" fill="#181c2b"/>
      <path id="Path_469" data-name="Path 469" d="M62.179,57.919c.038-.169-.039-.208-.182-.208h-.712c-.066,0-.09-.038-.078-.1l.065-.441a.114.114,0,0,1,.116-.1h2.93c.065,0,.1.039.09.1l-.92,5.521c-.065.427.1.57.4.57a2.194,2.194,0,0,0,.816-.233c.053-.013.092,0,.1.051l.117.311c.039.09-.013.1-.065.143A3.4,3.4,0,0,1,63.072,64a1.433,1.433,0,0,1-1.594-1.828Zm2.644-2.928A1.212,1.212,0,0,1,63.617,56.2a1.035,1.035,0,0,1-1.1-1.1,1.229,1.229,0,0,1,1.205-1.207A1.029,1.029,0,0,1,64.822,54.991Z" transform="translate(-23.987 -53.888)" fill="#181c2b"/>
      <path id="Path_470" data-name="Path 470" d="M71.731,58.866h-1.84c-.065,0-.092-.038-.077-.1.181-1.023.038-1.542-.442-1.542-.907,0-1.166.662-1.517,2.7a8.459,8.459,0,0,0-.193,1.464c0,.985.169,1.244.7,1.244s.9-.388,1.064-1.515A.113.113,0,0,1,69.54,61h1.828a.082.082,0,0,1,.09.105c-.208,1.3-.907,2.332-3.175,2.332-2.022,0-2.748-.766-2.748-2.2a11.928,11.928,0,0,1,.1-1.193c.414-2.385,1.464-3.642,3.9-3.642,1.97,0,2.579.778,2.308,2.358A.114.114,0,0,1,71.731,58.866Z" transform="translate(-23.029 -53.332)" fill="#181c2b"/>
      <path id="Path_471" data-name="Path 471" d="M77.793,58.36H76.16c-.053,0-.116-.038-.077-.1.22-.673-.09-1.062-.674-1.062-.622,0-1.037.272-1.037.8,0,1.258,3.214.921,3.214,3.214,0,1.258-.972,2.23-3.37,2.23-2.488,0-2.722-.921-2.409-2.009a.113.113,0,0,1,.116-.1h1.62c.039,0,.116.012.077.1-.245.725.131,1.192.713,1.192.713,0,1.231-.3,1.231-.8,0-1.452-3.136-1-3.136-3.344,0-1.205,1.037-2.074,3.214-2.074,1.944,0,2.593.48,2.255,1.853C77.884,58.322,77.845,58.36,77.793,58.36Z" transform="translate(-21.666 -53.332)" fill="#181c2b"/>
    </g>
  </g>
  <g id="Group_342" data-name="Group 342" transform="translate(46.954)">
    <path id="Path_472" data-name="Path 472" d="M75.541,19.832c0,2.453-5.556,3.683-6.329,5.735-.178.476,3.3.8,3.289,1.29-.1,5.23-13.847,10.979-13.887,3.529L58.208,10.86a7.8,7.8,0,0,0-1.977.176l-.4,19.349c-.043,7.45-13.787,1.7-13.888-3.529-.011-.493,3.468-.813,3.289-1.29-.773-2.052-6.334-3.281-6.329-5.735H38.45c0,8.921,3.939,15.061,13.178,18.2a17.4,17.4,0,0,1,5.6,2.807,17.406,17.406,0,0,1,5.593-2.807c9.239-3.138,13.179-9.278,13.179-18.2Z" transform="translate(-38.45 2.401)" fill="#181c2b"/>
    <path id="Path_473" data-name="Path 473" d="M59.279,20.677c-.17,0-.27.085-.27.225,0,1.854-.523,4.567-3.025,5.57l.021.8c5.481-.613,6.9-3.347,6.9-6.37,0-.139-.1-.225-.271-.225Z" transform="translate(-34.572 4.573)" fill="#181c2b"/>
    <path id="Path_474" data-name="Path 474" d="M53.084,31.861l.023-.911c-2.964-1.309-3.258-5.1-3.258-9.245,0-4.839,1.181-9.7,6.454-9.7,4.835,0,5.206,3.035,5.206,6.383,0,.14.1.225.271.225h3.153c.167,0,.269-.084.269-.225a41.033,41.033,0,0,1,0-6.781c0-.14-.1-.226-.269-.226h-2.68c-.136,0-.237.142-.27.226l-.2.535a.328.328,0,0,1-.336.2c-.7,0-1.468-.847-4.716-.946L56.7,7.935a4.027,4.027,0,1,0-1.909,0l-.029,3.486h.023c-6.565.419-9.653,4.046-9.653,10.424C45.131,27.764,47.339,31.252,53.084,31.861ZM54.312,4.027A1.432,1.432,0,1,1,55.745,5.46,1.434,1.434,0,0,1,54.312,4.027Z" transform="translate(-36.972)" fill="#181c2b"/>
  </g>
</svg>
