<svg xmlns="http://www.w3.org/2000/svg" width="181.625" height="224.698" viewBox="0 0 181.625 224.698">
  <g id="Group_331" data-name="Group 331" transform="translate(-319.236)">
    <path id="Path_453" data-name="Path 453" d="M485.189,224.7H334.908a15.689,15.689,0,0,1-15.672-15.672V28.511a15.689,15.689,0,0,1,15.672-15.673H485.189a15.691,15.691,0,0,1,15.672,15.673V209.026A15.69,15.69,0,0,1,485.189,224.7ZM334.908,14.838a13.687,13.687,0,0,0-13.672,13.673V209.026A13.687,13.687,0,0,0,334.908,222.7H485.189a13.687,13.687,0,0,0,13.672-13.672V28.511a13.688,13.688,0,0,0-13.672-13.673Z" fill="#220d2d"/>
    <path id="Path_454" data-name="Path 454" d="M445.178,27.677H374.919a12.514,12.514,0,0,1-12.5-12.5V12.5A12.515,12.515,0,0,1,374.919,0h70.259a12.515,12.515,0,0,1,12.5,12.5v2.677A12.514,12.514,0,0,1,445.178,27.677Z" fill="#d5bfff"/>
  </g>
</svg>
